<svg aria-hidden="true" style="position: absolute; width: 0; height: 0; overflow: hidden;" version="1.1" xmlns="http://www.w3.org/2000/svg" xmlns:xlink="http://www.w3.org/1999/xlink">
<defs>
<symbol id="icon-close" viewBox="0 0 32 32">
<path d="M16 14.115l6.6-6.6 1.885 1.885-6.6 6.6 6.6 6.6-1.885 1.885-6.6-6.6-6.6 6.6-1.885-1.885 6.6-6.6-6.6-6.6 1.885-1.885 6.6 6.6z"></path>
</symbol>
<symbol id="icon-hand" viewBox="0 0 32 32">
<path fill="#fff" style="fill: var(--color1, #fff);" d="M22.494 15.035c0.034-0.205 0.017-1.325 1.19-1.291s1.122 1.291 1.114 1.282l-0.162 5.812c0 0 0.043 5.342-4.658 6.582-4.692 1.239-8.127-4.325-8.909-5.377s-3.953-5.094-4.14-5.359c-0.179-0.265-0.408-1.616 1.122-1.65 1.522-0.034 3.987 3.787 4.284 3.975s0.859 0.256 0.748-0.752c-0.068-0.59-0.536-3.812-0.918-6.394 0 0-0.255-1.735-0.255-1.744l-0.093-0.65c-0.094-0.59-0.145-0.957-0.145-0.957s-0.553-2.086 0.808-2.316c1.369-0.231 1.522 1.504 1.598 1.881 0.017 0.094 0.077 0.496 0.17 1.043l0.094 0.633c0.026 0.145 0.23 1.453 0.23 1.453 0.238 1.522 0.485 3.052 0.519 3.248 0.076 0.385 0.162 0.633 0.468 0.581 0.391-0.060 0.255-0.547 0.264-0.692s0.026-0.855 0.026-0.855-0.085-1 1.088-1.103c1.173-0.094 1.403 0.598 1.428 0.846s0.076 0.735 0.076 0.735-0.059 0.701 0.434 0.727c0.391-0.026 0.391-0.282 0.408-0.513 0.008-0.128 0.043-0.325 0.068-0.539 0.060-0.35 0.238-1 1.36-0.923s1.318 0.846 1.309 1.214c-0.017 0.368-0.042 0.966-0.034 1.197 0.017 0.231-0.008 0.462 0.221 0.462 0.238 0 0.255-0.35 0.289-0.556z"></path>
<path fill="none" stroke="#fff" style="stroke: var(--color1, #fff);" stroke-linejoin="miter" stroke-linecap="butt" stroke-miterlimit="4" stroke-width="0.8" d="M15.6 7.2c0 1.546-1.254 2.8-2.8 2.8s-2.8-1.254-2.8-2.8c0-1.546 1.254-2.8 2.8-2.8s2.8 1.254 2.8 2.8z"></path>
<path fill="none" stroke="#fff" style="stroke: var(--color1, #fff);" stroke-linejoin="miter" stroke-linecap="butt" stroke-miterlimit="4" stroke-width="0.4" d="M15.8 7.2c0 1.657-1.343 3-3 3s-3-1.343-3-3c0-1.657 1.343-3 3-3s3 1.343 3 3z"></path>
</symbol>
<symbol id="icon-hand2" viewBox="0 0 32 32">
<path fill="#fff" style="fill: var(--color1, #fff);" d="M22.494 15.035c0.034-0.205 0.017-1.325 1.19-1.291s1.122 1.291 1.114 1.282l-0.162 5.812c0 0 0.043 5.342-4.658 6.582-4.692 1.239-8.127-4.325-8.909-5.377s-3.953-5.094-4.14-5.359c-0.179-0.265-0.408-1.616 1.122-1.65 1.522-0.034 3.987 3.787 4.284 3.975s0.859 0.256 0.748-0.752c-0.068-0.59-0.536-3.812-0.918-6.394 0 0-0.255-0.935-0.255-0.944l-0.093-0.65c-0.094-0.59-0.145-0.957-0.145-0.957s-0.553-2.086 0.808-2.316c1.369-0.231 1.522 1.504 1.598 1.881 0.017 0.094 0.077 0.496 0.17 1.043l0.094 0.633c0.026 0.145 0.23 0.653 0.23 0.653 0.238 1.522 0.485 3.052 0.519 3.248 0.076 0.385 0.162 0.633 0.468 0.581 0.391-0.060 0.255-0.547 0.264-0.692s0.026-0.855 0.026-0.855-0.085-1 1.088-1.103c1.173-0.094 1.403 0.598 1.428 0.846s0.076 0.735 0.076 0.735-0.059 0.701 0.434 0.727c0.391-0.026 0.391-0.282 0.408-0.513 0.008-0.128 0.043-0.325 0.068-0.539 0.060-0.35 0.238-1 1.36-0.923s1.318 0.846 1.309 1.214c-0.017 0.368-0.042 0.966-0.034 1.197 0.017 0.231-0.008 0.462 0.221 0.462 0.238 0 0.255-0.35 0.289-0.556z"></path>
<path fill="none" stroke="#fff" style="stroke: var(--color1, #fff);" stroke-linejoin="miter" stroke-linecap="butt" stroke-miterlimit="4" stroke-width="0.4" d="M17.4 8c0 2.54-2.059 4.6-4.6 4.6s-4.6-2.059-4.6-4.6c0-2.54 2.059-4.6 4.6-4.6s4.6 2.059 4.6 4.6z"></path>
<path fill="none" stroke="#fff" style="stroke: var(--color1, #fff);" stroke-linejoin="miter" stroke-linecap="butt" stroke-miterlimit="4" stroke-width="0.8" d="M15.6 8c0 1.546-1.254 2.8-2.8 2.8s-2.8-1.254-2.8-2.8c0-1.546 1.254-2.8 2.8-2.8s2.8 1.254 2.8 2.8z"></path>
</symbol>
<symbol id="icon-pin" viewBox="0 0 32 32">
<path d="M24.485 23.152l-8.485 8.485-8.485-8.485c-1.678-1.678-2.821-3.816-3.284-6.144s-0.225-4.741 0.683-6.933c0.908-2.193 2.446-4.067 4.42-5.385s4.293-2.022 6.667-2.022 4.693 0.704 6.667 2.022c1.973 1.319 3.511 3.193 4.42 5.385s1.146 4.605 0.683 6.933c-0.463 2.328-1.606 4.466-3.284 6.144v0zM16 17.333c0.707 0 1.386-0.281 1.886-0.781s0.781-1.178 0.781-1.886-0.281-1.386-0.781-1.886c-0.5-0.5-1.178-0.781-1.886-0.781s-1.386 0.281-1.886 0.781c-0.5 0.5-0.781 1.178-0.781 1.886s0.281 1.386 0.781 1.886c0.5 0.5 1.178 0.781 1.886 0.781z"></path>
</symbol>
</defs>
</svg>
