<?xml version="1.0" standalone="no"?>
<!DOCTYPE svg PUBLIC "-//W3C//DTD SVG 20010904//EN"
 "http://www.w3.org/TR/2001/REC-SVG-20010904/DTD/svg10.dtd">
<svg version="1.0" xmlns="http://www.w3.org/2000/svg"
 width="700.000000pt" height="700.000000pt" viewBox="0 0 700.000000 700.000000"
 preserveAspectRatio="xMidYMid meet">
<metadata>
Created by potrace 1.11, written by Peter Selinger 2001-2013
</metadata>
<g transform="translate(0.000000,700.000000) scale(0.100000,-0.100000)"
fill="#000000" stroke="none">
<path d="M3438 6368 c-51 -87 -285 -490 -466 -803 -6 -11 -60 -105 -120 -210
-61 -104 -119 -206 -130 -225 -12 -19 -41 -71 -67 -115 -25 -44 -76 -134 -114
-199 -59 -101 -68 -123 -59 -140 12 -24 99 -176 203 -356 40 -69 84 -145 97
-170 14 -25 49 -85 78 -135 29 -49 71 -124 94 -165 24 -41 104 -181 178 -312
75 -130 147 -256 161 -280 13 -23 65 -114 115 -201 51 -87 92 -162 92 -166 0
-4 -458 -8 -1017 -8 -560 -1 -1025 -2 -1034 -2 -14 -1 -127 -179 -234 -372
-20 -35 -508 -870 -526 -899 -24 -39 -199 -342 -199 -345 0 -2 -20 -36 -45
-76 -25 -40 -42 -75 -39 -78 3 -3 469 -6 1035 -6 l1029 -1 109 186 c60 102
118 202 130 223 22 39 38 67 68 115 10 15 18 29 18 32 0 3 40 73 89 155 173
293 212 360 220 375 4 8 12 24 19 35 13 21 105 178 122 207 19 35 189 324 226
386 l37 62 22 -37 c25 -43 160 -277 562 -978 152 -264 285 -496 297 -515 11
-19 24 -42 28 -50 4 -8 31 -55 60 -105 l54 -90 1034 0 c569 -1 1035 0 1035 2
0 4 -115 206 -150 263 -17 29 -103 174 -120 204 -83 146 -276 477 -291 498
-11 15 -19 29 -19 32 0 3 -75 134 -129 226 -5 8 -78 132 -161 275 -84 143
-156 264 -161 269 -5 6 -425 9 -1034 9 -564 0 -1025 1 -1025 2 0 1 65 116 143
256 79 140 155 274 169 299 14 25 124 221 245 435 121 215 231 408 243 430 12
22 50 90 85 150 136 241 135 240 121 266 -7 13 -74 130 -148 259 -74 129 -146
255 -160 280 -14 25 -162 286 -330 580 -167 294 -318 559 -334 587 -16 29 -32
53 -35 53 -3 0 -35 -51 -71 -112z"/>
</g>
</svg>
