<svg width="26" height="26" viewBox="0 0 26 26" fill="none" xmlns="http://www.w3.org/2000/svg">
<path d="M24.9111 15.0777L24.1316 14.2357C24.2225 13.4213 24.2225 12.5994 24.1316 11.785L24.9111 10.9482C25.3763 10.4519 26.2104 9.79436 25.9505 9.16806L24.8826 6.56929C24.6227 5.94299 23.5625 6.07293 22.8843 6.04954L21.7332 6.00796C21.2227 5.37001 20.6442 4.78965 20.0078 4.27718L19.9714 3.12592C19.9507 2.45024 20.0832 1.38735 19.4518 1.12747L16.8533 0.048982C16.2297 -0.210895 15.567 0.633705 15.0733 1.08849L14.234 1.86812C13.4189 1.777 12.5962 1.777 11.7811 1.86812L10.947 1.08849C10.4533 0.625909 9.79324 -0.210895 9.16701 0.048982L6.56854 1.11708C5.94231 1.37695 6.07483 2.43985 6.04884 3.11553L6.00727 4.26418C5.36835 4.77541 4.78717 5.35491 4.27409 5.99237L3.12557 6.02875C2.44996 6.04954 1.38719 5.917 1.12734 6.5485L0.0489764 9.14727C-0.210871 9.77097 0.633632 10.4311 1.08836 10.9248L1.86791 11.7642C1.77679 12.5794 1.77679 13.4023 1.86791 14.2175L1.08836 15.0543C0.625837 15.548 -0.210871 16.2055 0.0489764 16.8318L1.11695 19.4306C1.37679 20.0569 2.43957 19.927 3.11777 19.9503L4.26369 19.9893C4.77553 20.6294 5.35584 21.2115 5.99428 21.7253L6.02806 22.8714C6.04884 23.547 5.91632 24.6125 6.54775 24.8724L9.14622 25.9509C9.76985 26.2108 10.4299 25.3662 10.9236 24.9114L11.7655 24.1318C12.5789 24.2225 13.3998 24.2225 14.2132 24.1318L15.0499 24.9114C15.5463 25.3766 16.2011 26.2108 16.8273 25.9509L19.4258 24.8828C20.052 24.6229 19.9221 23.5626 19.9455 22.8818L19.9844 21.7331C20.6243 21.222 21.2063 20.6425 21.7202 20.0049L22.8687 19.9685C23.5443 19.9477 24.6097 20.0803 24.8696 19.4488L25.9479 16.85C26.2182 16.2367 25.3711 15.5766 24.9111 15.0777ZM13.0257 19.1577C9.73607 19.1577 7.07264 16.4004 7.07264 12.9986C7.07264 9.59686 9.73607 6.83956 13.0257 6.83956C16.3154 6.83956 18.9788 9.59686 18.9788 12.9986C18.9788 16.4004 16.3154 19.1577 13.0257 19.1577Z" fill="#87898C"/>
</svg>
