<svg width="220" height="28" viewBox="0 0 220 28" fill="none" xmlns="http://www.w3.org/2000/svg">
<path fill-rule="evenodd" clip-rule="evenodd" d="M29.4244 27.9574H23.0454L20.5033 21.7327L18.3234 16.3396L14.635 7.33532L10.9466 16.3396L8.76675 21.7327L6.22463 27.9574H0L11.8969 0H17.5276L29.4244 27.9574ZM55 19.0065L60.9871 27.9574L68.1739 27.9158L61.3494 17.9849C63.0616 17.3728 64.5637 16.2848 65.6793 14.8488C66.8457 13.237 67.43 11.2768 67.3364 9.28942V9.21221C67.3404 6.31768 66.4158 4.05868 64.5627 2.43521C62.7095 0.811736 60.1199 0 56.7938 0H44.0178V27.9158H50.1712V19.0065H55ZM60.8261 7.90765C61.047 8.42373 61.1429 8.98469 61.1059 9.54482L61.1356 9.65768C61.1576 10.1962 61.0598 10.7328 60.8492 11.2289C60.6387 11.725 60.3206 12.1682 59.9179 12.5265C58.9268 13.3048 57.6831 13.6898 56.4255 13.6075H50.1771V5.57128H56.2711C57.5385 5.49128 58.7954 5.8453 59.8348 6.57506C60.2656 6.93498 60.6053 7.39158 60.8261 7.90765ZM89.4671 10.216L102.997 27.9752L108.224 27.993V0.0356372H102.16V17.2246L89.0929 0H83.3969V27.9752H89.4671V10.216ZM126.233 27.9455V0.0534334H147.235V5.51186H132.291V11.1663H145.417V16.6307H132.291V22.487H147.431V27.9158L126.233 27.9455ZM186.119 23.9219C187.414 22.6418 188.444 21.1188 189.15 19.4401C189.881 17.726 190.252 15.8806 190.243 14.0173V13.9401C190.255 12.0777 189.894 10.2317 189.18 8.51139C188.497 6.85758 187.486 5.35864 186.21 4.10426C184.898 2.83751 183.358 1.82994 181.672 1.1345C177.968 -0.332809 173.843 -0.332809 170.138 1.1345C168.447 1.81857 166.907 2.82966 165.608 4.10981C164.308 5.38996 163.274 6.91399 162.565 8.59455C161.838 10.3114 161.47 12.1589 161.484 14.0233V14.1005C161.47 15.9631 161.832 17.8095 162.547 19.5292C163.23 21.1815 164.24 22.6785 165.517 23.9304C166.828 25.1989 168.368 26.2066 170.055 26.9002C171.88 27.6483 173.837 28.022 175.81 27.999C177.794 28.0183 179.762 27.6449 181.601 26.9002C183.288 26.2141 184.823 25.202 186.119 23.9219ZM183.419 10.7209C183.82 11.7713 184.021 12.8872 184.013 14.0114L184.03 14.1421C184.039 15.2586 183.837 16.3667 183.436 17.4088C183.052 18.3995 182.486 19.3099 181.767 20.0935C181.049 20.8632 180.174 21.4707 179.202 21.8753C178.165 22.3217 177.046 22.5463 175.917 22.5346C174.78 22.5518 173.653 22.3207 172.615 21.8575C171.636 21.4203 170.753 20.7938 170.017 20.014C169.281 19.2342 168.706 18.3165 168.326 17.3138C167.925 16.2677 167.724 15.1556 167.732 14.0352V13.9579C167.724 12.8414 167.925 11.7333 168.326 10.6912C168.697 9.69307 169.253 8.7741 169.966 7.98278C170.675 7.20399 171.541 6.58453 172.508 6.16528C173.55 5.71799 174.676 5.49538 175.81 5.51193C176.92 5.49926 178.02 5.71588 179.042 6.1482C180.064 6.58052 180.986 7.21925 181.75 8.02435C182.477 8.80523 183.044 9.72143 183.419 10.7209ZM219.311 22.4515H200.192V27.8921H219.311V22.4515Z" fill="white"/>
</svg>
