<svg width="80" height="80" viewBox="0 0 80 80" fill="none" xmlns="http://www.w3.org/2000/svg">
<path d="M42.8866 10.0005L74.6399 65.0005C74.9325 65.5072 75.0865 66.082 75.0865 66.6672C75.0865 67.2523 74.9325 67.8271 74.6399 68.3338C74.3474 68.8405 73.9266 69.2613 73.4199 69.5539C72.9132 69.8465 72.3384 70.0005 71.7532 70.0005H8.24658C7.66146 70.0005 7.08666 69.8465 6.57994 69.5539C6.07322 69.2613 5.65244 68.8405 5.35989 68.3338C5.06734 67.8271 4.91333 67.2523 4.91333 66.6672C4.91333 66.082 5.06735 65.5072 5.35991 65.0005L37.1132 10.0005C37.4058 9.49381 37.8266 9.07306 38.3333 8.78052C38.84 8.48799 39.4148 8.33398 39.9999 8.33398C40.585 8.33398 41.1598 8.48799 41.6665 8.78052C42.1732 9.07306 42.594 9.49381 42.8866 10.0005V10.0005ZM14.0199 63.3338H65.9799L39.9999 18.3338L14.0199 63.3338V63.3338ZM36.6666 53.3338H43.3332V60.0005H36.6666V53.3338ZM36.6666 30.0005H43.3332V46.6672H36.6666V30.0005Z" fill="#2D182A"/>
</svg>
