<svg width="80" height="80" viewBox="0 0 80 80" fill="none" xmlns="http://www.w3.org/2000/svg">
<path d="M0.95212 42.2369L21.6397 62.9245C22.9092 64.194 24.9675 64.194 26.2369 62.9245C27.5064 61.655 27.5064 59.5968 26.2369 58.3273L11.0987 43.1891H34.8852V36.6876H11.0987L26.2369 21.5494C27.5064 20.2799 27.5064 18.2216 26.2369 16.9521C24.9675 15.6826 22.9092 15.6826 21.6397 16.9521L0.95212 37.6397C-0.317373 38.9092 -0.317373 40.9675 0.95212 42.2369Z" fill="#2D182A"/>
<path d="M43.9237 36.6876V43.1891H68.9013L53.7631 58.3273C52.4936 59.5968 52.4936 61.655 53.7631 62.9245C55.0326 64.194 57.0908 64.194 58.3603 62.9245L79.0479 42.2369C80.3174 40.9675 80.3174 38.9092 79.0479 37.6397L58.3603 16.9521C57.0908 15.6826 55.0326 15.6826 53.7631 16.9521C52.4936 18.2216 52.4936 20.2799 53.7631 21.5494L68.9013 36.6876H43.9237Z" fill="#2D182A"/>
</svg>
