<svg width="80" height="80" viewBox="0 0 80 80" fill="none" xmlns="http://www.w3.org/2000/svg">
<path fill-rule="evenodd" clip-rule="evenodd" d="M24.2424 13.3336C24.2424 20.028 18.8156 25.4548 12.1212 25.4548C11.1198 25.4548 10.1468 25.3334 9.21613 25.1045C8.05733 28.2343 7.42432 31.6192 7.42432 35.152C7.42432 45.6699 13.0354 54.8773 21.4275 59.9441C23.601 56.6895 27.3076 54.5459 31.5149 54.5459C37.0369 54.5459 41.6965 58.2384 43.1592 63.289C52.9307 60.9376 60.7711 53.6281 63.8701 44.1709C59.1457 42.5159 55.7576 38.0178 55.7576 32.7283C55.7576 28.0994 58.3523 24.0766 62.1665 22.0348C57.3833 12.6444 47.6246 6.21256 36.3637 6.21256C31.752 6.21256 27.3923 7.29128 23.523 9.21017C23.9886 10.4973 24.2424 11.8858 24.2424 13.3336ZM4.69701 22.9158C1.83922 20.6984 0 17.2308 0 13.3336C0 6.63925 5.42685 1.2124 12.1212 1.2124C15.5609 1.2124 18.6659 2.64513 20.8721 4.94637C25.5164 2.55963 30.7827 1.21257 36.3637 1.21257C49.9138 1.21257 61.6092 9.15321 67.0505 20.635C67.3242 20.6165 67.6004 20.6071 67.8789 20.6071C74.5732 20.6071 80.0001 26.0339 80.0001 32.7283C80.0001 39.0752 75.1219 44.2828 68.9103 44.8063C65.4152 56.6069 55.677 65.7254 43.5223 68.335C42.7096 74.2401 37.6434 78.7883 31.5149 78.7883C24.8206 78.7883 19.3937 73.3615 19.3937 66.6671C19.3937 65.9788 19.4511 65.304 19.5613 64.647C9.32461 58.8029 2.42432 47.7833 2.42432 35.152C2.42432 30.8379 3.22921 26.7119 4.69701 22.9158Z" fill="#2D182A"/>
</svg>
