<svg width="80" height="80" viewBox="0 0 80 80" fill="none" xmlns="http://www.w3.org/2000/svg">
<path fill-rule="evenodd" clip-rule="evenodd" d="M40 20.0003C43.6819 20.0003 46.6667 17.0156 46.6667 13.3337C46.6667 9.65176 43.6819 6.66699 40 6.66699C36.3181 6.66699 33.3333 9.65176 33.3333 13.3337C33.3333 17.0156 36.3181 20.0003 40 20.0003ZM40 37.7786C43.6819 37.7786 46.6667 34.7939 46.6667 31.112C46.6667 27.4301 43.6819 24.4453 40 24.4453C36.3181 24.4453 33.3333 27.4301 33.3333 31.112C33.3333 34.7939 36.3181 37.7786 40 37.7786ZM28.8892 22.222C28.8892 25.9039 25.9044 28.8887 22.2225 28.8887C18.5406 28.8887 15.5558 25.9039 15.5558 22.222C15.5558 18.5401 18.5406 15.5553 22.2225 15.5553C25.9044 15.5553 28.8892 18.5401 28.8892 22.222ZM57.7775 28.8887C54.0956 28.8887 51.1108 25.9039 51.1108 22.222C51.1108 18.5401 54.0956 15.5553 57.7775 15.5553C61.4594 15.5553 64.4442 18.5401 64.4442 22.222C64.4442 25.9039 61.4594 28.8887 57.7775 28.8887ZM46.6667 48.8887C46.6667 52.5706 43.6819 55.5553 40 55.5553C36.3181 55.5553 33.3333 52.5706 33.3333 48.8887C33.3333 45.2068 36.3181 42.222 40 42.222C43.6819 42.222 46.6667 45.2068 46.6667 48.8887ZM22.2225 46.667C25.9044 46.667 28.8892 43.6822 28.8892 40.0003C28.8892 36.3184 25.9044 33.3337 22.2225 33.3337C18.5406 33.3337 15.5558 36.3184 15.5558 40.0003C15.5558 43.6822 18.5406 46.667 22.2225 46.667ZM51.1108 40.0003C51.1108 43.6822 54.0956 46.667 57.7775 46.667C61.4594 46.667 64.4442 43.6822 64.4442 40.0003C64.4442 36.3184 61.4594 33.3337 57.7775 33.3337C54.0956 33.3337 51.1108 36.3184 51.1108 40.0003ZM6.66667 40.0003C10.3486 40.0003 13.3333 37.0156 13.3333 33.3337C13.3333 29.6518 10.3486 26.667 6.66667 26.667C2.98477 26.667 0 29.6518 0 33.3337C0 37.0156 2.98477 40.0003 6.66667 40.0003ZM66.6667 33.3337C66.6667 37.0156 69.6514 40.0003 73.3333 40.0003C77.0152 40.0003 80 37.0156 80 33.3337C80 29.6518 77.0152 26.667 73.3333 26.667C69.6514 26.667 66.6667 29.6518 66.6667 33.3337ZM40 73.3337C43.6819 73.3337 46.6667 70.3489 46.6667 66.667C46.6667 62.9851 43.6819 60.0003 40 60.0003C36.3181 60.0003 33.3333 62.9851 33.3333 66.667C33.3333 70.3489 36.3181 73.3337 40 73.3337ZM28.8892 57.7786C28.8892 61.4605 25.9044 64.4453 22.2225 64.4453C18.5406 64.4453 15.5558 61.4605 15.5558 57.7786C15.5558 54.0967 18.5406 51.112 22.2225 51.112C25.9044 51.112 28.8892 54.0967 28.8892 57.7786ZM57.7775 64.4453C54.0956 64.4453 51.1108 61.4605 51.1108 57.7786C51.1108 54.0967 54.0956 51.112 57.7775 51.112C61.4594 51.112 64.4442 54.0967 64.4442 57.7786C64.4442 61.4605 61.4594 64.4453 57.7775 64.4453ZM13.3333 51.112C13.3333 54.7939 10.3486 57.7786 6.66667 57.7786C2.98477 57.7786 0 54.7939 0 51.112C0 47.4301 2.98477 44.4453 6.66667 44.4453C10.3486 44.4453 13.3333 47.4301 13.3333 51.112ZM73.3333 57.7786C69.6514 57.7786 66.6667 54.7939 66.6667 51.112C66.6667 47.4301 69.6514 44.4453 73.3333 44.4453C77.0152 44.4453 80 47.4301 80 51.112C80 54.7939 77.0152 57.7786 73.3333 57.7786Z" fill="#2D182A"/>
</svg>
