<svg width="80" height="80" viewBox="0 0 80 80" fill="none" xmlns="http://www.w3.org/2000/svg">
<path d="M61.0301 44.3334C64.0221 44.7474 63.5433 47.9304 63.5433 47.9304L61.5187 62.6756C61.5187 62.6756 60.1248 76.279 47.775 78.1248C35.4036 79.9682 28.1832 64.8321 26.4712 61.9606C24.7617 59.0673 17.772 47.8738 17.3646 47.1692C16.9595 46.4428 16.7684 42.9446 20.6929 43.2842C24.6174 43.6237 29.8441 54.0308 30.5532 54.5923C31.2623 55.1537 32.6765 55.5059 32.6757 52.8868C32.6726 50.2894 31.7447 27.6958 31.7447 27.6958C31.7447 27.6958 30.9115 22.2129 34.4555 22.0048C38.0213 21.7991 37.9294 26.2788 38.0015 27.233C38.093 28.2113 38.7718 42.7888 38.8609 43.7889C38.95 44.789 39.077 45.4411 39.896 45.3982C40.9131 45.355 40.7002 44.0773 40.7622 43.7099C40.8242 43.3425 41.0644 41.542 41.0644 41.542C41.0644 41.542 41.1024 38.9711 44.1541 39.0395C47.1841 39.1055 47.5988 40.9554 47.5736 41.5909C47.5701 42.2287 47.5656 43.4827 47.5656 43.4827C47.5656 43.4827 47.1972 45.2473 48.4734 45.4523C49.481 45.4961 49.5521 44.8436 49.6596 44.2611C49.7192 43.9154 49.8366 43.444 49.9829 42.9098C50.2323 42.0346 50.8691 40.4313 53.7188 40.9399C56.5685 41.4484 56.8579 43.4387 56.7319 44.3933C56.6082 45.3262 56.3554 46.8392 56.3132 47.4289C56.2709 48.0185 56.1417 48.5986 56.7507 48.665C57.338 48.729 57.4786 47.8419 57.6442 47.3318C57.7711 46.7734 58.0186 43.8952 61.0301 44.3334Z" fill="black"/>
<path d="M54.6852 28.9007L49.4476 22.1512C49.1725 21.8109 49.1339 21.3526 49.3164 20.9518C49.4988 20.5511 49.8836 20.2963 50.3209 20.2803L52.9884 20.1832L53.2811 2.37315C53.3975 1.36181 54.0792 0.242304 55.3474 0.196116C56.3094 0.161076 57.318 0.803039 57.3737 2.33355C57.3897 2.77084 57.58 14.6083 57.6455 20.0136L60.2911 19.9172C60.7284 19.9013 61.1307 20.1275 61.3418 20.5138C61.4356 20.6856 61.4857 20.8589 61.4921 21.0338C61.5009 21.2743 61.444 21.5172 61.2982 21.7196L56.5655 28.8322C56.358 29.1462 56.0145 29.3339 55.6428 29.3474C55.2712 29.361 54.9149 29.1988 54.6852 28.9007Z" fill="black"/>
</svg>
