<svg width="80" height="80" viewBox="0 0 80 80" fill="none" xmlns="http://www.w3.org/2000/svg">
<path d="M56.2339 37.5881C56.3189 37.0753 56.2764 34.2759 59.2092 34.3613C62.142 34.4468 62.0145 37.5881 61.9932 37.5668L61.5894 52.098C61.5894 52.098 61.6957 65.454 49.9434 68.5525C38.2123 71.6511 29.6265 57.7396 27.6713 55.1111C25.7161 52.4827 17.7891 42.3749 17.3216 41.7124C16.8753 41.05 16.3015 37.6736 20.1268 37.5881C23.9309 37.5027 30.094 47.0548 30.8378 47.5249C31.5816 47.9951 32.9843 48.166 32.708 45.6444C32.538 44.1699 31.3691 36.1136 30.4128 29.66C30.4128 29.66 29.7752 25.322 29.7752 25.3007L29.5415 23.6766C29.3077 22.2021 29.1802 21.2832 29.1802 21.2832C29.1802 21.2832 27.7988 16.069 31.1991 15.4921C34.6207 14.9151 35.0032 19.2531 35.1945 20.1934C35.237 20.4284 35.3858 21.4328 35.6195 22.8004L35.8533 24.3818C35.9171 24.7451 36.4271 28.0146 36.4271 28.0146C37.0222 31.8184 37.6385 35.6435 37.7235 36.135C37.9147 37.0966 38.1273 37.7163 38.8923 37.5881C39.8699 37.4385 39.5299 36.2205 39.5511 35.8572C39.5724 35.4939 39.6149 33.7203 39.6149 33.7203C39.6149 33.7203 39.4024 31.22 42.3351 30.9636C45.2679 30.7285 45.8417 32.4595 45.9055 33.0792C45.9692 33.6989 46.0967 34.9169 46.0967 34.9169C46.0967 34.9169 45.948 36.6692 47.1806 36.7334C48.1582 36.6692 48.1582 36.0282 48.2007 35.4512C48.2219 35.1306 48.307 34.6391 48.3707 34.1049C48.5195 33.2288 48.9658 31.6047 51.771 31.797C54.5763 31.9893 55.0651 33.9126 55.0438 34.8315C55.0013 35.7504 54.9376 37.2462 54.9588 37.8232C55.0013 38.4002 54.9376 38.9771 55.5114 38.9771C56.1064 38.9771 56.1489 38.101 56.2339 37.5881Z" fill="white"/>
<circle cx="32" cy="18" r="7" stroke="white" stroke-width="2"/>
<circle cx="32" cy="18" r="7.5" stroke="white"/>
</svg>
