<svg width="80" height="80" viewBox="0 0 80 80" fill="none" xmlns="http://www.w3.org/2000/svg">
<path fill-rule="evenodd" clip-rule="evenodd" d="M37.6781 12.9481C37.6781 20.0991 34.1998 25.8962 29.9092 25.8962C25.6186 25.8962 22.1403 20.0991 22.1403 12.9481C22.1403 5.79706 25.6186 0 29.9092 0C34.1998 0 37.6781 5.79706 37.6781 12.9481ZM40.2674 31.0758C30.256 31.0758 23.1135 44.0239 21.8187 50.498C21.3154 53.0148 19.2953 54.9445 17.0138 57.124C13.4264 60.5509 9.19276 64.5952 9.19276 72.5098C9.19276 81.8935 19.052 80.3963 29.1629 78.8609C33.0036 78.2777 36.8806 77.689 40.2674 77.689C43.6542 77.689 47.5312 78.2777 51.3719 78.8609C61.4832 80.3963 71.3429 81.8935 71.3429 72.5098C71.3429 64.5952 67.1092 60.5509 63.5218 57.124C61.2403 54.9445 59.2202 53.0148 58.7169 50.498C57.4221 44.0239 50.2788 31.0758 40.2674 31.0758ZM50.6262 25.8962C54.9168 25.8962 58.395 20.0991 58.395 12.9481C58.395 5.79706 54.9168 0 50.6262 0C46.3355 0 42.8573 5.79706 42.8573 12.9481C42.8573 20.0991 46.3355 25.8962 50.6262 25.8962ZM74.9258 34.9371C74.34 40.6279 70.9819 44.9444 67.4251 44.5783C63.8684 44.2122 61.46 39.3021 62.0457 33.6113C62.6315 27.9206 65.9896 23.6041 69.5463 23.9702C73.1031 24.3363 75.5115 29.2463 74.9258 34.9371ZM12.575 44.5783C9.01824 44.9444 5.66009 40.6279 5.07433 34.9371C4.48857 29.2463 6.89701 24.3363 10.4537 23.9702C14.0105 23.6041 17.3686 27.9206 17.9544 33.6113C18.5401 39.3021 16.1317 44.2122 12.575 44.5783Z" fill="#2D182A"/>
</svg>
