<svg width="80" height="80" viewBox="0 0 80 80" fill="none" xmlns="http://www.w3.org/2000/svg">
<path d="M63.3347 56.3344L40 79.669L16.6653 56.3344C12.0503 51.7192 8.90735 45.8392 7.63407 39.4378C6.36079 33.0365 7.01433 26.4013 9.51203 20.3713C12.0097 14.3414 16.2394 9.18754 21.6662 5.56147C27.093 1.93541 33.4732 0 40 0C46.5268 0 52.907 1.93541 58.3338 5.56147C63.7606 9.18754 67.9903 14.3414 70.488 20.3713C72.9857 26.4013 73.6392 33.0365 72.3659 39.4378C71.0927 45.8392 67.9497 51.7192 63.3347 56.3344V56.3344ZM40 40.333C41.9449 40.333 43.8102 39.5604 45.1854 38.1851C46.5607 36.8099 47.3333 34.9446 47.3333 32.9997C47.3333 31.0548 46.5607 29.1895 45.1854 27.8143C43.8102 26.439 41.9449 25.6664 40 25.6664C38.0551 25.6664 36.1898 26.439 34.8146 27.8143C33.4393 29.1895 32.6667 31.0548 32.6667 32.9997C32.6667 34.9446 33.4393 36.8099 34.8146 38.1851C36.1898 39.5604 38.0551 40.333 40 40.333Z" fill="black"/>
</svg>
