<svg width="80" height="80" viewBox="0 0 80 80" fill="none" xmlns="http://www.w3.org/2000/svg">
<path d="M61.2133 57.8801L40 79.0934L18.7867 57.8801C14.5911 53.6845 11.734 48.339 10.5764 42.5196C9.4189 36.7001 10.013 30.6682 12.2837 25.1864C14.5543 19.7046 18.3995 15.0193 23.3329 11.7229C28.2664 8.42645 34.0666 6.66699 40 6.66699C45.9334 6.66699 51.7336 8.42645 56.6671 11.7229C61.6005 15.0193 65.4457 19.7046 67.7164 25.1864C69.987 30.6682 70.5811 36.7001 69.4236 42.5196C68.2661 48.339 65.4089 53.6845 61.2133 57.8801V57.8801ZM40 43.3334C41.7681 43.3334 43.4638 42.631 44.7141 41.3808C45.9643 40.1305 46.6667 38.4348 46.6667 36.6667C46.6667 34.8986 45.9643 33.2029 44.7141 31.9527C43.4638 30.7024 41.7681 30.0001 40 30.0001C38.2319 30.0001 36.5362 30.7024 35.286 31.9527C34.0357 33.2029 33.3333 34.8986 33.3333 36.6667C33.3333 38.4348 34.0357 40.1305 35.286 41.3808C36.5362 42.631 38.2319 43.3334 40 43.3334Z" fill="#BE9965"/>
</svg>
