<svg width="80" height="80" viewBox="0 0 80 80" fill="none" xmlns="http://www.w3.org/2000/svg">
<rect width="80" height="80" fill="white"/>
<path d="M62.44 38.7926C62.5515 38.1202 62.4958 34.4499 66.341 34.562C70.1862 34.674 70.019 38.7926 69.9911 38.7646L69.4617 57.8167C69.4617 57.8167 69.601 75.3278 54.1924 79.3904C38.8116 83.453 27.5547 65.2134 24.9912 61.7672C22.4278 58.321 12.0346 45.0686 11.4216 44.2001C10.8365 43.3315 10.0842 38.9047 15.0996 38.7926C20.0872 38.6806 28.1677 51.2045 29.1429 51.8209C30.1182 52.4373 31.9572 52.6614 31.5949 49.3553C31.372 47.4221 29.8395 36.8594 28.5857 28.398C28.5857 28.398 27.7497 25.3327 27.7497 25.3046L27.4432 23.1753C27.1367 21.2421 26.9696 20.0373 26.9696 20.0373C26.9696 20.0373 25.1584 13.201 29.6166 12.4445C34.1027 11.688 34.6042 17.3756 34.855 18.6084C34.9107 18.9166 35.1058 20.2334 35.4123 22.0266L35.7188 24.0999C35.8024 24.5762 36.4711 26.2407 36.4711 26.2407C37.2513 31.2278 38.0593 36.243 38.1708 36.8874C38.4215 38.1482 38.7002 38.9608 39.7033 38.7926C40.985 38.5965 40.5392 36.9995 40.567 36.5232C40.5949 36.0469 40.6506 33.7214 40.6506 33.7214C40.6506 33.7214 40.372 30.4433 44.2172 30.1071C48.0624 29.7989 48.8147 32.0684 48.8983 32.8809C48.9819 33.6934 49.1491 35.2904 49.1491 35.2904C49.1491 35.2904 48.954 37.5879 50.5701 37.6719C51.8518 37.5879 51.8518 36.7473 51.9076 35.9909C51.9354 35.5706 52.0469 34.9262 52.1305 34.2257C52.3255 33.077 52.9107 30.9477 56.5887 31.1998C60.2667 31.452 60.9075 33.9736 60.8797 35.1784C60.824 36.3831 60.7404 38.3444 60.7682 39.1008C60.824 39.8573 60.7404 40.6138 61.4927 40.6138C62.2729 40.6138 62.3286 39.4651 62.44 38.7926Z" fill="black"/>
<circle cx="30.6669" cy="15.7333" r="13.7339" stroke="black" stroke-width="3.9989"/>
<path d="M37.1571 15.7335C37.1571 19.3178 34.2514 22.2235 30.6671 22.2235C27.0828 22.2235 24.1771 19.3178 24.1771 15.7335C24.1771 12.1492 27.0828 9.24352 30.6671 9.24352C34.2514 9.24352 37.1571 12.1492 37.1571 15.7335Z" stroke="black" stroke-width="7.99779"/>
</svg>
