<svg width="80" height="80" viewBox="0 0 80 80" fill="none" xmlns="http://www.w3.org/2000/svg">
<rect width="80" height="80" fill="white"/>
<path d="M63.1838 37.3968C63.299 36.7016 63.2414 32.9068 67.2169 33.0227C71.1925 33.1386 71.0196 37.3968 70.9908 37.3678L70.4435 57.0658C70.4435 57.0658 70.5875 75.1705 54.6565 79.3708C38.7544 83.5711 27.1159 64.7132 24.4655 61.1502C21.8152 57.5872 11.0697 43.8855 10.4359 42.9875C9.83094 42.0896 9.05311 37.5127 14.2386 37.3968C19.3953 37.2809 27.7497 50.2294 28.7579 50.8667C29.7662 51.504 31.6676 51.7357 31.2931 48.3176C31.0626 46.3188 29.4782 35.398 28.1818 26.6499C28.1818 26.6499 27.3175 20.7694 27.3175 20.7405L27.0006 18.5389C26.6838 16.5402 26.5109 15.2946 26.5109 15.2946C26.5109 15.2946 24.6384 8.2265 29.2477 7.44438C33.8858 6.66225 34.4044 12.5427 34.6636 13.8172C34.7212 14.1359 34.9229 15.4973 35.2398 17.3513L35.5567 19.4949C35.6431 19.9873 36.3345 24.4194 36.3345 24.4194C37.1411 29.5756 37.9766 34.7608 38.0918 35.427C38.3511 36.7306 38.6392 37.5706 39.6763 37.3968C41.0014 37.194 40.5405 35.5429 40.5693 35.0504C40.5981 34.558 40.6557 32.1537 40.6557 32.1537C40.6557 32.1537 40.3677 28.7645 44.3432 28.4169C48.3187 28.0982 49.0966 30.4446 49.183 31.2847C49.2694 32.1247 49.4423 33.7759 49.4423 33.7759C49.4423 33.7759 49.2406 36.1512 50.9115 36.2381C52.2367 36.1512 52.2367 35.2822 52.2943 34.5001C52.3231 34.0655 52.4383 33.3993 52.5247 32.6751C52.7264 31.4874 53.3314 29.2859 57.1341 29.5466C60.9367 29.8073 61.5993 32.4144 61.5705 33.66C61.5129 34.9056 61.4265 36.9333 61.4553 37.7155C61.5129 38.4976 61.4265 39.2797 62.2043 39.2797C63.0109 39.2797 63.0685 38.092 63.1838 37.3968Z" fill="black"/>
<path d="M37.1785 10.8444C37.1785 14.6251 34.1137 17.69 30.333 17.69C26.5523 17.69 23.4874 14.6251 23.4874 10.8444C23.4874 7.06375 26.5523 3.9989 30.333 3.9989C34.1137 3.9989 37.1785 7.06375 37.1785 10.8444Z" fill="black" stroke="white" stroke-width="7.99779"/>
<path d="M39.178 10.8444C39.178 15.7294 35.2179 19.6894 30.333 19.6894C25.448 19.6894 21.488 15.7294 21.488 10.8444C21.488 5.95949 25.448 1.99945 30.333 1.99945C35.2179 1.99945 39.178 5.95949 39.178 10.8444Z" fill="black" stroke="white" stroke-width="3.9989"/>
</svg>
