<svg width="80" height="80" viewBox="0 0 80 80" fill="none" xmlns="http://www.w3.org/2000/svg">
<path fill-rule="evenodd" clip-rule="evenodd" d="M2.78124 35.2852L13.6001 24.4664L17.1356 28.0019L6.31677 38.8208C5.66589 39.4716 5.6659 40.5269 6.31677 41.1778L17.6435 52.5046L14.108 56.0401L2.78123 44.7133C0.177738 42.1098 0.177741 37.8887 2.78124 35.2852ZM23.5 14.5665L27.0355 18.102L38.8218 6.31579C39.4726 5.66492 40.5279 5.66492 41.1788 6.31579L52.5055 17.6426L56.0411 14.107L44.7143 2.78026C42.1108 0.176765 37.8897 0.176762 35.2862 2.78026L23.5 14.5665ZM73.6837 41.1778L61.8976 52.964L65.4331 56.4995L77.2193 44.7133C79.8228 42.1098 79.8228 37.8887 77.2193 35.2852L65.941 24.007L62.4055 27.5425L73.6838 38.8208C74.3346 39.4716 74.3346 40.5269 73.6837 41.1778ZM38.8217 73.6828L27.5435 62.4045L24.0079 65.94L35.2862 77.2183C37.8897 79.8218 42.1108 79.8218 44.7143 77.2183L55.5331 66.3995L51.9976 62.8639L41.1788 73.6828C40.5279 74.3336 39.4726 74.3336 38.8217 73.6828ZM45.1634 21.4473C42.56 18.8438 38.3389 18.8438 35.7354 21.4473L21.8977 35.2849C19.2942 37.8884 19.2942 42.1095 21.8977 44.713L35.7354 58.5506C38.3389 61.1541 42.5599 61.1541 45.1634 58.5506L59.0011 44.713C61.6046 42.1095 61.6046 37.8884 59.0011 35.2849L45.1634 21.4473Z" fill="#2D182A"/>
</svg>
