<svg width="80" height="80" viewBox="0 0 80 80" fill="none" xmlns="http://www.w3.org/2000/svg">
<path d="M63.413 38.8192C66.9168 38.9207 66.7644 42.653 66.7644 42.653L66.282 59.9179C66.282 59.9179 66.3836 75.7865 52.3685 79.468C38.3281 83.1494 28.096 66.5954 25.7602 63.4979C23.4244 60.375 13.954 48.3403 13.3955 47.5786C12.8369 46.7915 12.1768 42.78 16.7469 42.6784C21.317 42.5768 28.6546 53.926 29.5433 54.4846C30.4319 55.0431 32.1076 55.2716 31.7775 52.2503C31.4475 49.2543 27.5375 23.3061 27.5375 23.3061C27.5375 23.3061 25.8872 17.0857 29.9495 16.4001C34.0372 15.7146 34.4942 20.8941 34.6973 21.9859C34.9259 23.103 37.541 39.8348 37.7695 40.9773C37.998 42.1198 38.2265 42.8561 39.1659 42.7038C40.3338 42.5261 39.9276 41.0788 39.953 40.6472C39.9784 40.2156 40.0292 38.1083 40.0292 38.1083C40.0292 38.1083 39.7499 35.1377 43.279 34.833C46.7828 34.5283 47.4937 36.6103 47.5445 37.3466C47.6207 38.0829 47.773 39.5301 47.773 39.5301C47.773 39.5301 47.5699 41.612 49.0679 41.6882C50.2358 41.612 50.2358 40.8503 50.2866 40.1648C50.312 39.7586 50.3881 39.2 50.4897 38.5653C50.6674 37.5243 51.2006 35.5947 54.552 35.8232C57.9035 36.0517 58.4874 38.3114 58.462 39.4285C58.4366 40.5203 58.3351 42.2976 58.3605 42.9831C58.3859 43.6686 58.3097 44.3541 59.0206 44.3541C59.7061 44.3541 59.7569 43.3131 59.8839 42.7038C59.96 42.0437 59.8839 38.6922 63.413 38.8192Z" fill="black"/>
<path d="M15.4281 6.0424L23.4766 0.253562C23.8828 -0.0511139 24.416 -0.0765035 24.873 0.152003C25.33 0.38051 25.6093 0.837523 25.6093 1.34532V4.44285L46.2511 5.5346C47.419 5.71233 48.6885 6.55019 48.6885 8.02279C48.6885 9.13993 47.9014 10.2825 46.1241 10.2825C45.6163 10.2825 31.8805 10.0032 25.6093 9.85084V12.923C25.6093 13.4308 25.33 13.8878 24.873 14.1163C24.6699 14.2179 24.4668 14.2686 24.2637 14.2686C23.9844 14.2686 23.7051 14.1925 23.4766 14.0147L15.4281 8.2259C15.0726 7.97201 14.8695 7.56577 14.8695 7.13415C14.8695 6.70253 15.0726 6.29629 15.4281 6.0424Z" fill="black"/>
</svg>
