<svg width="80" height="80" viewBox="0 0 80 80" fill="none" xmlns="http://www.w3.org/2000/svg">
<g clip-path="url(#clip0)">
<path d="M63.1173 43.3026C66.0942 44.4814 64.8006 47.6387 64.8006 47.6387L59.0074 62.3131C59.0074 62.3131 54.1507 75.9704 40.9696 74.7651C27.7666 73.5519 24.1383 56.1498 23.0976 52.7623C22.0649 49.3531 17.6825 36.0689 17.4402 35.2408C17.2058 34.391 17.8888 30.7407 21.8446 32.0774C25.8004 33.414 28.5651 45.4451 29.1541 46.2016C29.7431 46.9581 31.1108 47.6764 31.7687 44.9792C32.4187 42.3038 37.1455 18.805 37.1455 18.805C37.1455 18.805 37.6665 12.9496 41.3682 13.6266C45.0917 14.3115 43.8705 18.9013 43.7047 19.902C43.5529 20.9325 40.5856 36.1141 40.4258 37.1663C40.2661 38.2186 40.2329 38.922 41.087 39.0839C42.1452 39.2951 42.2473 37.9259 42.4036 37.5632C42.5598 37.2005 43.26 35.4068 43.26 35.4068C43.26 35.4068 43.9457 32.7691 47.0709 33.607C50.1744 34.437 50.1362 36.4462 49.9504 37.0942C49.7864 37.7502 49.4663 39.0403 49.4663 39.0403C49.4663 39.0403 48.6433 40.7647 49.9058 41.2968C50.9324 41.5953 51.1697 40.9412 51.4269 40.3684C51.5753 40.0275 51.8147 39.5716 52.0996 39.0582C52.5766 38.2198 53.6356 36.729 56.4421 37.9694C59.2487 39.2097 59.0461 41.332 58.6762 42.2833C58.3143 43.2128 57.6734 44.7073 57.4816 45.3038C57.2898 45.9003 57.0108 46.4652 57.6213 46.6867C58.2099 46.9003 58.5778 46.0223 58.8767 45.5386C59.1477 44.9955 60.1265 42.094 63.1173 43.3026Z" fill="black"/>
<path d="M41.0841 5.51933L48.4359 0.231612C48.807 -0.0466892 49.294 -0.0698809 49.7115 0.138845C50.1289 0.34757 50.384 0.765022 50.384 1.22886V4.05825L69.2389 5.05549C70.3057 5.21784 71.4653 5.98316 71.4653 7.32829C71.4653 8.34872 70.7464 9.39235 69.123 9.39235C68.6591 9.39235 56.1124 9.13724 50.384 8.99809V11.8043C50.384 12.2681 50.1289 12.6856 49.7115 12.8943C49.5259 12.9871 49.3404 13.0335 49.1549 13.0335C48.8998 13.0335 48.6447 12.9639 48.4359 12.8015L41.0841 7.51382C40.7595 7.2819 40.5739 6.91083 40.5739 6.51657C40.5739 6.12231 40.7595 5.75125 41.0841 5.51933Z" fill="black"/>
</g>
<defs>
<clipPath id="clip0">
<rect width="80" height="80" fill="white"/>
</clipPath>
</defs>
</svg>
