<svg width="80" height="80" viewBox="0 0 80 80" fill="none" xmlns="http://www.w3.org/2000/svg">
<path d="M63.2337 41.0754C66.4931 41.5264 65.9715 44.994 65.9715 44.994L63.766 61.0571C63.766 61.0571 62.2474 75.8764 48.7939 77.8872C35.3166 79.8954 27.4508 63.4064 25.5858 60.2782C23.7235 57.1263 16.109 44.9323 15.6652 44.1647C15.2239 43.3734 15.0157 39.5626 19.2911 39.9324C23.5664 40.3023 29.2602 51.6397 30.0327 52.2513C30.8052 52.863 32.3458 53.2466 32.3449 50.3934C32.3415 47.5639 31.3307 28.9686 31.3307 28.9686C31.3307 28.9686 30.423 22.9956 34.2838 22.7689C38.1683 22.5448 38.0682 27.4249 38.1468 28.4644C38.2464 29.5302 38.9858 39.3928 39.0829 40.4823C39.18 41.5718 39.3184 42.2821 40.2106 42.2355C41.3186 42.1884 41.0866 40.7965 41.1542 40.3963C41.2218 39.996 41.4834 38.0346 41.4834 38.0346C41.4834 38.0346 41.5248 35.2339 44.8493 35.3084C48.1501 35.3803 48.6019 37.3955 48.5744 38.0878C48.5706 38.7827 48.5656 40.1488 48.5656 40.1488C48.5656 40.1488 48.1644 42.0711 49.5546 42.2944C50.6523 42.3421 50.7298 41.6313 50.8469 40.9967C50.9118 40.6201 51.0397 40.1066 51.199 39.5246C51.4707 38.5712 52.1645 36.8246 55.2689 37.3786C58.3733 37.9326 58.6886 40.1008 58.5513 41.1407C58.4166 42.157 58.1411 43.8053 58.0951 44.4476C58.0491 45.09 57.9083 45.722 58.5718 45.7942C59.2115 45.8639 59.3648 44.8976 59.5452 44.3419C59.6834 43.7336 59.953 40.5982 63.2337 41.0754Z" fill="black"/>
<path d="M56.3224 31.4834L50.6167 24.1307C50.317 23.76 50.2749 23.2607 50.4737 22.8241C50.6724 22.3876 51.0916 22.1099 51.568 22.0926L54.4739 21.9868L54.7928 2.58479C54.9196 1.48306 55.6623 0.263492 57.0437 0.213174C58.0918 0.175003 59.1905 0.874346 59.2512 2.54166C59.2686 3.01803 59.4759 15.9135 59.5473 21.802L62.4294 21.697C62.9057 21.6796 63.344 21.926 63.574 22.347C63.6762 22.534 63.7308 22.7229 63.7377 22.9134C63.7473 23.1754 63.6854 23.44 63.5264 23.6605L58.3708 31.4088C58.1447 31.751 57.7706 31.9554 57.3657 31.9701C56.9607 31.9849 56.5727 31.8082 56.3224 31.4834Z" fill="black"/>
</svg>
