<svg aria-hidden="true" style="position:absolute;width:0;height:0" xmlns="http://www.w3.org/2000/svg" overflow="hidden"><defs><symbol id="icon-close" viewBox="0 0 32 32"><path d="M16 14.115l6.6-6.6L24.485 9.4l-6.6 6.6 6.6 6.6-1.885 1.885-6.6-6.6-6.6 6.6L7.515 22.6l6.6-6.6-6.6-6.6L9.4 7.515l6.6 6.6z"/></symbol><symbol id="icon-hand" viewBox="0 0 32 32"><path fill="var(--color1, #fff)" d="M22.494 15.035c.034-.205.017-1.325 1.19-1.291s1.122 1.291 1.114 1.282l-.162 5.812s.043 5.342-4.658 6.582c-4.692 1.239-8.127-4.325-8.909-5.377s-3.953-5.094-4.14-5.359c-.179-.265-.408-1.616 1.122-1.65 1.522-.034 3.987 3.787 4.284 3.975s.859.256.748-.752c-.068-.59-.536-3.812-.918-6.394 0 0-.255-1.735-.255-1.744l-.093-.65c-.094-.59-.145-.957-.145-.957s-.553-2.086.808-2.316c1.369-.231 1.522 1.504 1.598 1.881.017.094.077.496.17 1.043l.094.633c.026.145.23 1.453.23 1.453.238 1.522.485 3.052.519 3.248.076.385.162.633.468.581.391-.06.255-.547.264-.692s.026-.855.026-.855-.085-1 1.088-1.103c1.173-.094 1.403.598 1.428.846l.076.735s-.059.701.434.727c.391-.026.391-.282.408-.513.008-.128.043-.325.068-.539.06-.35.238-1 1.36-.923s1.318.846 1.309 1.214c-.017.368-.042.966-.034 1.197.017.231-.008.462.221.462.238 0 .255-.35.289-.556z"/><path fill="none" stroke="var(--color1, #fff)" stroke-width=".8" d="M15.6 7.2a2.8 2.8 0 11-5.601-.001A2.8 2.8 0 0115.6 7.2z"/><path fill="none" stroke="var(--color1, #fff)" stroke-width=".4" d="M15.8 7.2a3 3 0 11-6 0 3 3 0 016 0z"/></symbol><symbol id="icon-hand2" viewBox="0 0 32 32"><path fill="var(--color1, #fff)" d="M22.494 15.035c.034-.205.017-1.325 1.19-1.291s1.122 1.291 1.114 1.282l-.162 5.812s.043 5.342-4.658 6.582c-4.692 1.239-8.127-4.325-8.909-5.377s-3.953-5.094-4.14-5.359c-.179-.265-.408-1.616 1.122-1.65 1.522-.034 3.987 3.787 4.284 3.975s.859.256.748-.752c-.068-.59-.536-3.812-.918-6.394 0 0-.255-.935-.255-.944l-.093-.65c-.094-.59-.145-.957-.145-.957s-.553-2.086.808-2.316c1.369-.231 1.522 1.504 1.598 1.881.017.094.077.496.17 1.043l.094.633c.026.145.23.653.23.653.238 1.522.485 3.052.519 3.248.076.385.162.633.468.581.391-.06.255-.547.264-.692s.026-.855.026-.855-.085-1 1.088-1.103c1.173-.094 1.403.598 1.428.846l.076.735s-.059.701.434.727c.391-.026.391-.282.408-.513.008-.128.043-.325.068-.539.06-.35.238-1 1.36-.923s1.318.846 1.309 1.214c-.017.368-.042.966-.034 1.197.017.231-.008.462.221.462.238 0 .255-.35.289-.556z"/><path fill="none" stroke="var(--color1, #fff)" stroke-width=".4" d="M17.4 8a4.6 4.6 0 11-9.2 0 4.6 4.6 0 019.2 0z"/><path fill="none" stroke="var(--color1, #fff)" stroke-width=".8" d="M15.6 8a2.8 2.8 0 11-5.601-.001A2.8 2.8 0 0115.6 8z"/></symbol><symbol id="icon-pin" viewBox="0 0 32 32"><path d="M24.485 23.152L16 31.637l-8.485-8.485A11.999 11.999 0 0122.668 4.69a11.992 11.992 0 011.819 18.462zM16 17.333a2.668 2.668 0 100-5.336 2.668 2.668 0 000 5.336z"/></symbol></defs></svg>