<svg aria-hidden="true" style="position:absolute;width:0;height:0" xmlns="http://www.w3.org/2000/svg" overflow="hidden"><defs><symbol id="icon-pin" viewBox="0 0 32 32"><path d="M25.334 22.534L16 31.868l-9.334-9.334A13.196 13.196 0 013.805 8.148a13.201 13.201 0 1121.531 14.386zM16 16.133a2.933 2.933 0 100-5.866 2.933 2.933 0 000 5.866z"/></symbol><symbol id="icon-arrow-right" viewBox="0 0 32 32"><path d="M25.315 16.633L7.761 31.828a.819.819 0 01-1.361-.614V.823c0-.318.187-.614.483-.746A.952.952 0 017.223 0c.198 0 .384.066.538.198l17.554 15.195c.186.143.285.373.285.614s-.099.461-.285.625z"/></symbol><symbol id="icon-arrow-left" viewBox="0 0 32 32"><path d="M6.685 15.398L24.239.203A.819.819 0 0125.6.817v30.391a.819.819 0 01-.483.746.952.952 0 01-.34.077.818.818 0 01-.538-.197L6.685 16.639c-.186-.143-.285-.373-.285-.614s.099-.461.285-.625z"/></symbol><symbol id="icon-swipe-right" viewBox="0 0 32 32"><path d="M25.247 17.321c1.191.472.673 1.734.673 1.734l-2.317 5.87s-1.943 5.463-7.215 4.981c-5.281-.485-6.733-7.446-7.149-8.801-.413-1.364-2.166-6.677-2.263-7.009-.094-.34.179-1.8 1.762-1.265s2.688 5.347 2.924 5.65.783.59 1.046-.489c.26-1.07 2.151-10.47 2.151-10.47s.208-2.342 1.689-2.071c1.489.274 1.001 2.11.935 2.51-.061.412-1.248 6.485-1.312 6.906s-.077.702.264.767c.423.084.464-.463.527-.608s.343-.863.343-.863.274-1.055 1.524-.72c1.241.332 1.226 1.136 1.152 1.395l-.194.778s-.329.69.176.903c.411.119.506-.142.608-.371.059-.136.155-.319.269-.524.191-.335.614-.932 1.737-.436s1.042 1.345.894 1.726c-.145.372-.401.97-.478 1.208s-.188.465.056.553c.235.085.383-.266.502-.459.108-.217.5-1.378 1.696-.894zM16.434 2.208L19.375.093c.148-.111.343-.121.51-.037s.269.25.269.436v1.132l7.542.399c.427.065.891.371.891.909 0 .408-.288.826-.937.826-.186 0-5.204-.102-7.496-.158v1.122a.483.483 0 01-.269.436.494.494 0 01-.223.056.466.466 0 01-.288-.093l-2.941-2.115c-.13-.093-.204-.241-.204-.399s.074-.306.204-.399z"/></symbol><symbol id="icon-swipe-left" viewBox="0 0 32 32"><path d="M25.365 15.528c1.402.041 1.341 1.534 1.341 1.534l-.193 6.906s.041 6.347-5.565 7.82c-5.616 1.473-9.709-5.149-10.643-6.388-.934-1.249-4.722-6.063-4.946-6.368-.223-.315-.487-1.919 1.341-1.96s4.763 4.499 5.119 4.722c.355.223 1.026.315.894-.894-.132-1.198-1.696-11.578-1.696-11.578s-.66-2.488.965-2.762c1.635-.274 1.818 1.798 1.899 2.234.091.447 1.137 7.14 1.229 7.597s.183.752.559.691c.467-.071.305-.65.315-.823s.03-1.016.03-1.016-.112-1.188 1.3-1.31c1.402-.122 1.686.711 1.706 1.005l.091.873s-.081.833.518.863c.467-.03.467-.335.487-.609.01-.162.041-.386.081-.64.071-.416.284-1.188 1.625-1.097s1.574.995 1.564 1.442c-.01.437-.051 1.148-.041 1.422s-.02.548.264.548c.274 0 .295-.416.345-.66.03-.264 0-1.605 1.412-1.554zM6.171 2.417L9.39.101c.162-.122.376-.132.559-.041s.295.274.295.477v1.239l8.257.437c.467.071.975.406.975.995 0 .447-.315.904-1.026.904-.203 0-5.697-.112-8.206-.173v1.229a.529.529 0 01-.295.477.534.534 0 01-.559-.041L6.171 3.288c-.142-.102-.223-.264-.223-.437s.081-.335.223-.437z"/></symbol><symbol id="icon-up" viewBox="0 0 32 32"><path d="M25.293 16.43c1.304.18 1.095 1.567 1.095 1.567l-.882 6.425s-.607 5.928-5.989 6.732c-5.391.803-8.537-5.792-9.283-7.044-.745-1.261-3.791-6.138-3.968-6.445-.177-.317-.26-1.841 1.45-1.693s3.988 4.683 4.297 4.928c.309.245.925.398.925-.743-.001-1.132-.406-8.57-.406-8.57s-.363-2.389 1.181-2.48c1.554-.09 1.514 1.862 1.545 2.278.04.426.336 4.371.374 4.807s.094.72.451.701c.443-.019.35-.576.377-.736s.132-.945.132-.945.017-1.12 1.346-1.09c1.32.029 1.501.835 1.49 1.112l-.004.824s-.16.769.396.858c.439.019.47-.265.517-.519.026-.151.077-.356.141-.589.109-.381.386-1.08 1.628-.858s1.368 1.089 1.313 1.505c-.054.407-.164 1.066-.182 1.323s-.075.51.191.539c.256.028.317-.359.389-.581.055-.243.163-1.497 1.475-1.307zm-2.764-3.837l-2.282-2.941c-.12-.148-.137-.348-.057-.523s.247-.286.438-.293l1.162-.042.128-7.761c.051-.441.348-.929.9-.949.419-.015.859.264.883.931.007.191.09 5.349.118 7.704l1.153-.042a.498.498 0 01.458.26.495.495 0 01-.02.526l-2.062 3.099c-.09.137-.24.219-.402.225s-.317-.065-.417-.195z"/></symbol><symbol id="icon-down" viewBox="0 0 32 32"><path d="M24.412 17.733c1.197.166 1.005 1.439 1.005 1.439l-.81 5.898s-.558 5.441-5.497 6.18c-4.949.737-7.837-5.317-8.522-6.466-.684-1.157-3.48-5.635-3.643-5.917-.162-.291-.238-1.69 1.331-1.554s3.66 4.299 3.944 4.523c.284.225.849.365.849-.682-.001-1.039-.372-10.076-.372-10.076s-.333-2.193 1.084-2.276c1.426-.082 1.39 1.71 1.418 2.091.037.391.308 6.222.344 6.622s.086.661.414.644c.407-.017.322-.528.346-.675s.121-.867.121-.867.015-1.028 1.236-1.001c1.212.026 1.378.766 1.368 1.021l-.003.757s-.147.706.363.788c.403.018.431-.243.474-.476.024-.138.071-.327.129-.541.1-.35.354-.991 1.494-.788s1.256 1 1.205 1.381c-.049.373-.151.978-.167 1.214s-.069.468.175.494c.235.026.291-.329.357-.533.051-.223.15-1.375 1.354-1.199zm-2.538-6.173l-2.095-2.7c-.11-.136-.125-.319-.052-.48s.227-.262.402-.269l1.067-.039.117-7.124c.047-.405.319-.852.827-.871.385-.014.788.243.811.855.006.175.083 4.91.109 7.072l1.058-.039a.456.456 0 01.42.239.454.454 0 01-.018.482l-1.893 2.845c-.083.126-.22.201-.369.206s-.291-.059-.383-.179z"/></symbol><symbol id="icon-alert" viewBox="0 0 32 32"><path d="M17.155 4l12.701 22a1.336 1.336 0 01-.488 1.822 1.336 1.336 0 01-.667.179H3.298a1.336 1.336 0 01-1.334-1.334c0-.234.062-.464.179-.667L14.844 4a1.328 1.328 0 011.155-.667A1.336 1.336 0 0117.154 4zM5.608 25.334h20.784L16 7.334l-10.392 18zm9.059-4h2.667v2.667h-2.667v-2.667zm0-9.334h2.667v6.667h-2.667V12z"/></symbol><symbol id="icon-paw" viewBox="0 0 32 32"><path d="M15.071 5.179c0 2.86-1.391 5.179-3.108 5.179S8.855 8.039 8.855 5.179C8.855 2.319 10.246 0 11.963 0s3.108 2.319 3.108 5.179zm1.036 7.251c-4.005 0-6.862 5.179-7.379 7.769-.201 1.007-1.009 1.779-1.922 2.65-1.435 1.371-3.128 2.988-3.128 6.154 0 3.753 3.944 3.155 7.988 2.54 1.536-.233 3.087-.469 4.442-.469s2.906.235 4.442.469c4.045.614 7.988 1.213 7.988-2.54 0-3.166-1.693-4.784-3.128-6.154-.913-.872-1.721-1.644-1.922-2.65-.518-2.59-3.375-7.769-7.38-7.769zm4.143-2.072c1.716 0 3.108-2.319 3.108-5.179S21.967 0 20.25 0c-1.716 0-3.108 2.319-3.108 5.179s1.391 5.179 3.108 5.179zm9.72 3.617c-.234 2.276-1.578 4.003-3 3.856s-2.386-2.11-2.152-4.387c.234-2.276 1.578-4.003 3-3.856s2.386 2.11 2.152 4.387zM5.03 17.831c-1.423.146-2.766-1.58-3-3.856s.729-4.24 2.152-4.387c1.423-.146 2.766 1.58 3 3.856s-.729 4.24-2.152 4.387z"/></symbol><symbol id="icon-dots" viewBox="0 0 32 32"><path d="M16 8a2.667 2.667 0 100-5.334A2.667 2.667 0 0016 8zm0 7.111a2.667 2.667 0 100-5.334 2.667 2.667 0 000 5.334zm-4.444-6.222a2.667 2.667 0 11-5.334 0 2.667 2.667 0 015.334 0zm11.555 2.666a2.667 2.667 0 110-5.334 2.667 2.667 0 010 5.334zm-4.444 8a2.667 2.667 0 11-5.334 0 2.667 2.667 0 015.334 0zm-9.778-.888a2.667 2.667 0 100-5.334 2.667 2.667 0 000 5.334zM20.444 16a2.667 2.667 0 105.334 0 2.667 2.667 0 00-5.334 0zM2.667 16a2.667 2.667 0 100-5.334 2.667 2.667 0 000 5.334zm24-2.667a2.667 2.667 0 105.334 0 2.667 2.667 0 00-5.334 0zM16 29.333a2.667 2.667 0 100-5.334 2.667 2.667 0 000 5.334zm-4.444-6.222a2.667 2.667 0 11-5.334 0 2.667 2.667 0 015.334 0zm11.555 2.667a2.667 2.667 0 110-5.334 2.667 2.667 0 010 5.334zM5.333 20.445a2.667 2.667 0 11-5.334 0 2.667 2.667 0 015.334 0zm24 2.666a2.667 2.667 0 110-5.334 2.667 2.667 0 010 5.334z"/></symbol><symbol id="icon-circles" viewBox="0 0 32 32"><path d="M9.697 5.333a4.848 4.848 0 01-6.01 4.708 11.542 11.542 0 00-.717 4.019 11.57 11.57 0 005.601 9.917 4.85 4.85 0 018.693 1.338 11.596 11.596 0 008.284-7.647 4.85 4.85 0 01-.681-8.854 11.576 11.576 0 00-10.321-6.329c-1.845 0-3.589.431-5.136 1.199.186.515.288 1.07.288 1.649zM1.879 9.166a4.848 4.848 0 116.469-7.187A13.515 13.515 0 0114.545.485c5.42 0 10.098 3.176 12.275 7.769a4.848 4.848 0 01.743 9.668 13.596 13.596 0 01-10.155 9.411 4.85 4.85 0 11-9.584-1.475C3.729 23.52.969 19.113.969 14.06c0-1.726.322-3.376.909-4.894z"/></symbol><symbol id="icon-arrows" viewBox="0 0 32 32"><path d="M.381 16.895l8.275 8.275a1.3 1.3 0 101.839-1.839L4.44 17.276h9.515v-2.601H4.44l6.055-6.055a1.3 1.3 0 10-1.839-1.839L.381 15.056a1.3 1.3 0 000 1.839zm17.188-2.22v2.601h9.991l-6.055 6.055a1.3 1.3 0 101.839 1.839l8.275-8.275a1.3 1.3 0 000-1.839l-8.275-8.275a1.3 1.3 0 10-1.839 1.839l6.055 6.055h-9.991z"/></symbol><symbol id="icon-square" viewBox="0 0 32 32"><path d="M1.113 14.114l4.328-4.328L6.855 11.2l-4.328 4.328a.668.668 0 000 .943l4.531 4.531-1.414 1.414-4.531-4.531a2.667 2.667 0 010-3.771zM9.4 5.827l1.414 1.414 4.715-4.714c.26-.26.682-.26.943 0l4.531 4.531 1.414-1.414-4.531-4.531a2.667 2.667 0 00-3.771 0L9.401 5.828zm20.073 10.644l-4.714 4.714 1.414 1.414 4.714-4.714a2.667 2.667 0 000-3.771l-4.511-4.511-1.414 1.414 4.511 4.511c.26.26.26.682 0 .943zM15.529 29.473l-4.511-4.511-1.414 1.414 4.511 4.511a2.667 2.667 0 003.771 0l4.328-4.328-1.414-1.414-4.328 4.328a.668.668 0 01-.943 0zm2.536-20.894a2.667 2.667 0 00-3.771 0l-5.535 5.535a2.667 2.667 0 000 3.771l5.535 5.535a2.667 2.667 0 003.771 0l5.535-5.535a2.667 2.667 0 000-3.771l-5.535-5.535z"/></symbol><symbol id="icon-home" viewBox="0 0 32 32"><path d="M27.344 12.076L16.697.684a.884.884 0 00-1.3 0L4.671 12.17c-.227.243-.305.57-.256.886v17.889c0 .359.276.654.611.654h6.934c.335 0 .611-.295.611-.654V20.703h6.865v10.242c0 .359.276.654.611.654h6.934c.335 0 .611-.295.611-.654V12.887a.992.992 0 00-.246-.812z"/></symbol><symbol id="icon-mountain" viewBox="0 0 32 32"><path d="M32 26.667H0L9.333 5.334l9.778 13.333 6.222-6.222L32 26.667z"/></symbol><symbol id="icon-close" viewBox="0 0 32 32"><path d="M16 14.115l6.6-6.6L24.485 9.4l-6.6 6.6 6.6 6.6-1.885 1.885-6.6-6.6-6.6 6.6L7.515 22.6l6.6-6.6-6.6-6.6L9.4 7.515l6.6 6.6z"/></symbol><symbol id="icon-hand" viewBox="0 0 32 32"><path fill="var(--color1, #fff)" d="M22.494 15.035c.034-.205.017-1.325 1.19-1.291s1.122 1.291 1.114 1.282l-.162 5.812s.043 5.342-4.658 6.582c-4.692 1.239-8.127-4.325-8.909-5.377s-3.953-5.094-4.14-5.359c-.179-.265-.408-1.616 1.122-1.65 1.522-.034 3.987 3.787 4.284 3.975s.859.256.748-.752c-.068-.59-.536-3.812-.918-6.394 0 0-.255-1.735-.255-1.744l-.093-.65c-.094-.59-.145-.957-.145-.957s-.553-2.086.808-2.316c1.369-.231 1.522 1.504 1.598 1.881.017.094.077.496.17 1.043l.094.633c.026.145.23 1.453.23 1.453.238 1.522.485 3.052.519 3.248.076.385.162.633.468.581.391-.06.255-.547.264-.692s.026-.855.026-.855-.085-1 1.088-1.103c1.173-.094 1.403.598 1.428.846l.076.735s-.059.701.434.727c.391-.026.391-.282.408-.513.008-.128.043-.325.068-.539.06-.35.238-1 1.36-.923s1.318.846 1.309 1.214c-.017.368-.042.966-.034 1.197.017.231-.008.462.221.462.238 0 .255-.35.289-.556z"/><path fill="none" stroke="var(--color1, #fff)" stroke-width=".8" d="M15.6 7.2a2.8 2.8 0 11-5.601-.001A2.8 2.8 0 0115.6 7.2z"/><path fill="none" stroke="var(--color1, #fff)" stroke-width=".4" d="M15.8 7.2a3 3 0 11-6 0 3 3 0 016 0z"/></symbol><symbol id="icon-hand2" viewBox="0 0 32 32"><path fill="var(--color1, #fff)" d="M22.494 15.035c.034-.205.017-1.325 1.19-1.291s1.122 1.291 1.114 1.282l-.162 5.812s.043 5.342-4.658 6.582c-4.692 1.239-8.127-4.325-8.909-5.377s-3.953-5.094-4.14-5.359c-.179-.265-.408-1.616 1.122-1.65 1.522-.034 3.987 3.787 4.284 3.975s.859.256.748-.752c-.068-.59-.536-3.812-.918-6.394 0 0-.255-.935-.255-.944l-.093-.65c-.094-.59-.145-.957-.145-.957s-.553-2.086.808-2.316c1.369-.231 1.522 1.504 1.598 1.881.017.094.077.496.17 1.043l.094.633c.026.145.23.653.23.653.238 1.522.485 3.052.519 3.248.076.385.162.633.468.581.391-.06.255-.547.264-.692s.026-.855.026-.855-.085-1 1.088-1.103c1.173-.094 1.403.598 1.428.846l.076.735s-.059.701.434.727c.391-.026.391-.282.408-.513.008-.128.043-.325.068-.539.06-.35.238-1 1.36-.923s1.318.846 1.309 1.214c-.017.368-.042.966-.034 1.197.017.231-.008.462.221.462.238 0 .255-.35.289-.556z"/><path fill="none" stroke="var(--color1, #fff)" stroke-width=".4" d="M17.4 8a4.6 4.6 0 11-9.2 0 4.6 4.6 0 019.2 0z"/><path fill="none" stroke="var(--color1, #fff)" stroke-width=".8" d="M15.6 8a2.8 2.8 0 11-5.601-.001A2.8 2.8 0 0115.6 8z"/></symbol></defs></svg>