<svg aria-hidden="true" style="position: absolute; width: 0; height: 0; overflow: hidden;" version="1.1" xmlns="http://www.w3.org/2000/svg" xmlns:xlink="http://www.w3.org/1999/xlink">
<defs>
<symbol id="icon-check" viewBox="0 0 12 12">
<title>check</title>
<path d="M11.079 2.587c0.228 0.228 0.228 0.597 0 0.825l-6.417 6.417c-0.228 0.228-0.597 0.228-0.825 0l-2.917-2.917c-0.228-0.228-0.228-0.597 0-0.825s0.597-0.228 0.825 0l2.504 2.504 6.004-6.004c0.228-0.228 0.597-0.228 0.825 0z"></path>
</symbol>
<symbol id="icon-chevron" viewBox="0 0 12 12">
<title>chevron</title>
<path d="M6.002 7.7c-0.11 0-0.21-0.040-0.29-0.12l-2.5-2.6c-0.15-0.16-0.15-0.41 0.010-0.57 0.16-0.15 0.41-0.15 0.57 0.010l2.21 2.3 2.21-2.3c0.15-0.16 0.41-0.16 0.57-0.010s0.16 0.41 0.010 0.57l-2.5 2.6c-0.080 0.080-0.18 0.12-0.29 0.12z"></path>
</symbol>
<symbol id="icon-download" viewBox="0 0 12 12">
<title>download</title>
<path d="M1.5 7c0.276 0 0.5 0.224 0.5 0.5v2c0 0.133 0.053 0.26 0.146 0.354s0.221 0.146 0.354 0.146h7c0.133 0 0.26-0.053 0.354-0.146s0.146-0.221 0.146-0.354v-2c0-0.276 0.224-0.5 0.5-0.5s0.5 0.224 0.5 0.5v2c0 0.398-0.158 0.779-0.439 1.061s-0.663 0.439-1.061 0.439h-7c-0.398 0-0.779-0.158-1.061-0.439s-0.439-0.663-0.439-1.061v-2c0-0.276 0.224-0.5 0.5-0.5z"></path>
<path d="M3.146 4.646c0.195-0.195 0.512-0.195 0.707 0l2.146 2.146 2.146-2.146c0.195-0.195 0.512-0.195 0.707 0s0.195 0.512 0 0.707l-2.5 2.5c-0.195 0.195-0.512 0.195-0.707 0l-2.5-2.5c-0.195-0.195-0.195-0.512 0-0.707z"></path>
<path d="M6 1c0.276 0 0.5 0.224 0.5 0.5v6c0 0.276-0.224 0.5-0.5 0.5s-0.5-0.224-0.5-0.5v-6c0-0.276 0.224-0.5 0.5-0.5z"></path>
</symbol>
<symbol id="icon-info" viewBox="0 0 12 12">
<title>info</title>
<path d="M6 1.5c-2.485 0-4.5 2.015-4.5 4.5s2.015 4.5 4.5 4.5c2.485 0 4.5-2.015 4.5-4.5s-2.015-4.5-4.5-4.5zM0.5 6c0-3.038 2.462-5.5 5.5-5.5s5.5 2.462 5.5 5.5c0 3.038-2.462 5.5-5.5 5.5s-5.5-2.462-5.5-5.5z"></path>
<path d="M6 5.5c0.276 0 0.5 0.224 0.5 0.5v2c0 0.276-0.224 0.5-0.5 0.5s-0.5-0.224-0.5-0.5v-2c0-0.276 0.224-0.5 0.5-0.5z"></path>
<path d="M6.5 4c0 0.276-0.224 0.5-0.5 0.5s-0.5-0.224-0.5-0.5c0-0.276 0.224-0.5 0.5-0.5s0.5 0.224 0.5 0.5z"></path>
</symbol>
<symbol id="icon-mail" viewBox="0 0 12 12">
<title>mail</title>
<path d="M2 2.5c-0.274 0-0.5 0.226-0.5 0.5v6c0 0.274 0.226 0.5 0.5 0.5h8c0.274 0 0.5-0.226 0.5-0.5v-6c0-0.274-0.226-0.5-0.5-0.5h-8zM0.5 3c0-0.826 0.674-1.5 1.5-1.5h8c0.826 0 1.5 0.674 1.5 1.5v6c0 0.826-0.674 1.5-1.5 1.5h-8c-0.826 0-1.5-0.674-1.5-1.5v-6z"></path>
<path d="M0.59 2.713c0.158-0.226 0.47-0.281 0.696-0.123l4.713 3.299 4.713-3.299c0.226-0.158 0.538-0.103 0.696 0.123s0.103 0.538-0.123 0.696l-5 3.5c-0.172 0.121-0.401 0.121-0.573 0l-5-3.5c-0.226-0.158-0.281-0.47-0.123-0.696z"></path>
</symbol>
<symbol id="icon-minus" viewBox="0 0 12 12">
<title>minus</title>
<path d="M0.4 6c0-0.387 0.313-0.7 0.7-0.7h9.8c0.387 0 0.7 0.313 0.7 0.7s-0.313 0.7-0.7 0.7h-9.8c-0.387 0-0.7-0.313-0.7-0.7z"></path>
</symbol>
<symbol id="icon-waves3" viewBox="0 0 12 12">
<title>waves3</title>
<path d="M6 3.938c-1.139 0-2.063 0.923-2.063 2.063s0.923 2.063 2.063 2.063c1.139 0 2.063-0.923 2.063-2.063s-0.923-2.063-2.063-2.063zM3.563 6c0-1.346 1.091-2.438 2.438-2.438s2.438 1.091 2.438 2.438c0 1.346-1.091 2.438-2.438 2.438s-2.438-1.091-2.438-2.438z"></path>
<path d="M6 1.688c-2.382 0-4.313 1.931-4.313 4.313s1.931 4.313 4.313 4.313c2.382 0 4.313-1.931 4.313-4.313s-1.931-4.313-4.313-4.313zM1.313 6c0-2.589 2.099-4.688 4.688-4.688s4.688 2.099 4.688 4.688c0 2.589-2.099 4.688-4.688 4.688s-4.688-2.099-4.688-4.688z"></path>
<path d="M9.008 3.117c0.073 0.073 0.073 0.192 0 0.265l-0.875 0.875c-0.073 0.073-0.192 0.073-0.265 0s-0.073-0.192 0-0.265l0.875-0.875c0.073-0.073 0.192-0.073 0.265 0z"></path>
<path d="M8.188 3.188c0-0.104 0.084-0.188 0.188-0.188h0.5c0.138 0 0.25 0.112 0.25 0.25v0.5c0 0.104-0.084 0.188-0.188 0.188s-0.188-0.084-0.188-0.188v-0.375h-0.375c-0.104 0-0.188-0.084-0.188-0.188z"></path>
<path d="M8.75 4.187c0 0.104-0.084 0.188-0.188 0.188h-0.5c-0.138 0-0.25-0.112-0.25-0.25v-0.5c0-0.104 0.084-0.188 0.188-0.188s0.188 0.084 0.188 0.188v0.375h0.375c0.104 0 0.188 0.084 0.188 0.187z"></path>
</symbol>
<symbol id="icon-waves4" viewBox="0 0 12 12">
<title>waves4</title>
<path d="M6 1.688c-2.382 0-4.313 1.931-4.313 4.313s1.931 4.313 4.313 4.313c2.382 0 4.313-1.931 4.313-4.313s-1.931-4.313-4.313-4.313zM1.313 6c0-2.589 2.099-4.688 4.688-4.688s4.688 2.099 4.688 4.688c0 2.589-2.099 4.688-4.688 4.688s-4.688-2.099-4.688-4.688z"></path>
<path d="M9.096 3.629c-0.179-0.237-0.527-0.254-0.732-0.048l-1.448 1.454c0.066-0.004 0.133-0.007 0.2-0.010 0.589-0.029 1.215-0.047 1.532-0.055 0.437-0.011 0.617 0.554 0.255 0.798-0.262 0.177-0.783 0.526-1.279 0.844-0.108 0.069-0.215 0.137-0.318 0.201h2.13c0.245 0 0.461-0.183 0.482-0.437 0.043-0.536 0.026-0.987-0.104-1.431s-0.365-0.852-0.716-1.316z"></path>
<path d="M1.688 7.25c0-0.104 0.084-0.188 0.188-0.188h0.122c0.397 0 0.77 0.127 1.114 0.287 0.173 0.080 0.341 0.17 0.504 0.259 0.031 0.017 0.062 0.034 0.093 0.051 0.131 0.072 0.258 0.141 0.385 0.205 0.74 0.374 1.697 0.438 1.905 0.447 0.022 0.001 0.042 0.001 0.064 0 0.208-0.009 1.165-0.073 1.905-0.447 0.127-0.064 0.254-0.133 0.385-0.205 0.031-0.017 0.062-0.034 0.093-0.051 0.163-0.089 0.332-0.179 0.504-0.259 0.344-0.16 0.716-0.287 1.114-0.287h0.060c0.104 0 0.188 0.084 0.188 0.188s-0.084 0.188-0.188 0.188h-0.060c-0.318 0-0.633 0.102-0.956 0.252-0.161 0.075-0.321 0.16-0.483 0.248-0.030 0.016-0.060 0.033-0.091 0.049-0.132 0.072-0.265 0.145-0.397 0.212-0.817 0.413-1.845 0.478-2.058 0.487-0.033 0.001-0.064 0.001-0.098 0-0.213-0.009-1.241-0.074-2.058-0.487-0.132-0.067-0.266-0.14-0.397-0.212-0.030-0.017-0.060-0.033-0.091-0.049-0.162-0.088-0.322-0.173-0.483-0.248-0.323-0.15-0.638-0.252-0.956-0.252h-0.122c-0.104 0-0.188-0.084-0.188-0.188z"></path>
<path d="M2.063 6.5c0-0.104 0.084-0.188 0.188-0.188h0.75c0.104 0 0.188 0.084 0.188 0.188s-0.084 0.188-0.188 0.188h-0.75c-0.104 0-0.188-0.084-0.188-0.188z"></path>
<path d="M3.216 3.716c0.073-0.073 0.192-0.073 0.265 0l0.53 0.53c0.073 0.073 0.073 0.192 0 0.265s-0.192 0.073-0.265 0l-0.53-0.53c-0.073-0.073-0.073-0.192 0-0.265z"></path>
<path d="M6 2.563c0.104 0 0.188 0.084 0.188 0.188v0.75c0 0.104-0.084 0.188-0.188 0.188s-0.188-0.084-0.188-0.188v-0.75c0-0.104 0.084-0.188 0.188-0.188z"></path>
<path d="M8.784 3.716c0.073 0.073 0.073 0.192 0 0.265l-0.53 0.53c-0.073 0.073-0.192 0.073-0.265 0s-0.073-0.192 0-0.265l0.53-0.53c0.073-0.073 0.192-0.073 0.265 0z"></path>
<path d="M6.296 6.948c-0.395 0.126-0.817-0.092-0.943-0.486s0.092-0.817 0.486-0.943c0.327-0.104 2.187-0.159 2.818-0.175 0.062-0.002 0.087 0.078 0.036 0.112-0.523 0.353-2.070 1.387-2.397 1.491z"></path>
</symbol>
<symbol id="icon-waves5" viewBox="0 0 12 12">
<title>waves5</title>
<path d="M3.5 3.688c-1.277 0-2.312 1.035-2.312 2.312s1.035 2.312 2.312 2.312c1.277 0 2.312-1.035 2.312-2.312s-1.035-2.312-2.312-2.312zM0.812 6c0-1.484 1.203-2.687 2.687-2.687s2.687 1.203 2.687 2.687c0 1.484-1.203 2.687-2.687 2.687s-2.687-1.203-2.687-2.687z"></path>
<path d="M4.086 6.58c0 0.177-0.064 0.317-0.192 0.419s-0.304 0.153-0.532 0.153c-0.209 0-0.395-0.039-0.556-0.118v-0.387c0.132 0.059 0.244 0.101 0.336 0.125s0.176 0.036 0.252 0.036c0.091 0 0.161-0.017 0.209-0.052s0.074-0.087 0.074-0.156c0-0.038-0.011-0.073-0.032-0.102s-0.053-0.060-0.095-0.087c-0.041-0.028-0.126-0.072-0.254-0.133-0.12-0.056-0.21-0.111-0.27-0.162s-0.108-0.112-0.144-0.181c-0.036-0.069-0.054-0.149-0.054-0.242 0-0.174 0.059-0.31 0.176-0.41s0.281-0.149 0.489-0.149c0.102 0 0.199 0.012 0.291 0.036s0.19 0.058 0.291 0.102l-0.134 0.324c-0.105-0.043-0.192-0.073-0.26-0.090s-0.135-0.026-0.201-0.026c-0.079 0-0.139 0.018-0.181 0.055s-0.063 0.085-0.063 0.144c0 0.037 0.008 0.069 0.026 0.097s0.044 0.053 0.081 0.079c0.038 0.025 0.126 0.071 0.265 0.137 0.184 0.088 0.309 0.176 0.377 0.265s0.102 0.196 0.102 0.324z"></path>
<path d="M9.521 2.75h-0.302v-0.616h-0.565v0.616h-0.303v-1.428h0.303v0.56h0.565v-0.56h0.302v1.428z"></path>
<path d="M9.146 10.625h-0.302v-0.616h-0.565v0.616h-0.303v-1.428h0.303v0.56h0.565v-0.56h0.302v1.428z"></path>
<path d="M9 0.938c-0.656 0-1.187 0.532-1.187 1.187s0.532 1.187 1.187 1.187c0.656 0 1.187-0.532 1.187-1.187s-0.532-1.187-1.187-1.187zM7.438 2.125c0-0.863 0.7-1.562 1.562-1.562s1.562 0.7 1.562 1.562c0 0.863-0.7 1.562-1.562 1.562s-1.562-0.7-1.562-1.562z"></path>
<path d="M8.625 8.687c-0.656 0-1.187 0.532-1.187 1.187s0.532 1.187 1.187 1.187c0.656 0 1.187-0.532 1.187-1.187s-0.532-1.187-1.187-1.187zM7.063 9.875c0-0.863 0.7-1.562 1.562-1.562s1.562 0.7 1.562 1.562c0 0.863-0.7 1.562-1.562 1.562s-1.562-0.7-1.562-1.562z"></path>
<path d="M8.027 2.89c0.061 0.084 0.042 0.201-0.042 0.262l-2.25 1.625c-0.084 0.061-0.201 0.042-0.262-0.042s-0.042-0.201 0.042-0.262l2.25-1.625c0.084-0.061 0.201-0.042 0.262 0.042z"></path>
<path d="M5.407 7.52c0.058-0.086 0.175-0.108 0.26-0.050l1.937 1.313c0.086 0.058 0.108 0.175 0.050 0.26s-0.175 0.108-0.26 0.050l-1.937-1.313c-0.086-0.058-0.108-0.175-0.050-0.26z"></path>
</symbol>
</defs>
</svg>
