<svg aria-hidden="true" style="position: absolute; width: 0; height: 0; overflow: hidden;" version="1.1" xmlns="http://www.w3.org/2000/svg" xmlns:xlink="http://www.w3.org/1999/xlink">
<defs>
<symbol id="icon-pin" viewBox="0 0 32 32">
<path d="M25.334 22.534l-9.334 9.334-9.334-9.334c-1.846-1.846-3.103-4.198-3.612-6.759s-0.248-5.215 0.751-7.627c0.999-2.412 2.691-4.473 4.862-5.924s4.723-2.225 7.334-2.225c2.611 0 5.163 0.774 7.334 2.225s3.863 3.512 4.862 5.924c0.999 2.412 1.26 5.066 0.751 7.627s-1.766 4.913-3.612 6.759v0zM16 16.133c0.778 0 1.524-0.309 2.074-0.859s0.859-1.296 0.859-2.074-0.309-1.524-0.859-2.074c-0.55-0.55-1.296-0.859-2.074-0.859s-1.524 0.309-2.074 0.859c-0.55 0.55-0.859 1.296-0.859 2.074s0.309 1.524 0.859 2.074c0.55 0.55 1.296 0.859 2.074 0.859z"></path>
</symbol>
<symbol id="icon-arrow-right" viewBox="0 0 32 32">
<path d="M25.315 16.633l-17.554 15.195c-0.241 0.208-0.592 0.263-0.878 0.132-0.296-0.132-0.483-0.428-0.483-0.746v-30.391c0-0.318 0.187-0.614 0.483-0.746 0.11-0.044 0.23-0.077 0.34-0.077 0.198 0 0.384 0.066 0.538 0.198l17.554 15.195c0.186 0.143 0.285 0.373 0.285 0.614s-0.099 0.461-0.285 0.625z"></path>
</symbol>
<symbol id="icon-arrow-left" viewBox="0 0 32 32">
<path d="M6.685 15.398l17.554-15.195c0.241-0.208 0.592-0.263 0.878-0.132 0.296 0.132 0.483 0.428 0.483 0.746v30.391c0 0.318-0.187 0.614-0.483 0.746-0.11 0.044-0.23 0.077-0.34 0.077-0.198 0-0.384-0.066-0.538-0.197l-17.554-15.195c-0.186-0.143-0.285-0.373-0.285-0.614s0.099-0.461 0.285-0.625z"></path>
</symbol>
<symbol id="icon-swipe-right" viewBox="0 0 32 32">
<path d="M25.247 17.321c1.191 0.472 0.673 1.734 0.673 1.734l-2.317 5.87c0 0-1.943 5.463-7.215 4.981-5.281-0.485-6.733-7.446-7.149-8.801-0.413-1.364-2.166-6.677-2.263-7.009-0.094-0.34 0.179-1.8 1.762-1.265s2.688 5.347 2.924 5.65 0.783 0.59 1.046-0.489c0.26-1.070 2.151-10.47 2.151-10.47s0.208-2.342 1.689-2.071c1.489 0.274 1.001 2.11 0.935 2.51-0.061 0.412-1.248 6.485-1.312 6.906s-0.077 0.702 0.264 0.767c0.423 0.084 0.464-0.463 0.527-0.608s0.343-0.863 0.343-0.863 0.274-1.055 1.524-0.72c1.241 0.332 1.226 1.136 1.152 1.395-0.066 0.262-0.194 0.778-0.194 0.778s-0.329 0.69 0.176 0.903c0.411 0.119 0.506-0.142 0.608-0.371 0.059-0.136 0.155-0.319 0.269-0.524 0.191-0.335 0.614-0.932 1.737-0.436s1.042 1.345 0.894 1.726c-0.145 0.372-0.401 0.97-0.478 1.208s-0.188 0.465 0.056 0.553c0.235 0.085 0.383-0.266 0.502-0.459 0.108-0.217 0.5-1.378 1.696-0.894z"></path>
<path d="M16.434 2.208l2.941-2.115c0.148-0.111 0.343-0.121 0.51-0.037s0.269 0.25 0.269 0.436v1.132l7.542 0.399c0.427 0.065 0.891 0.371 0.891 0.909 0 0.408-0.288 0.826-0.937 0.826-0.186 0-5.204-0.102-7.496-0.158v1.122c0 0.186-0.102 0.353-0.269 0.436-0.074 0.037-0.148 0.056-0.223 0.056-0.102 0-0.204-0.028-0.288-0.093l-2.941-2.115c-0.13-0.093-0.204-0.241-0.204-0.399s0.074-0.306 0.204-0.399z"></path>
</symbol>
<symbol id="icon-swipe-left" viewBox="0 0 32 32">
<path d="M25.365 15.528c1.402 0.041 1.341 1.534 1.341 1.534l-0.193 6.906c0 0 0.041 6.347-5.565 7.82-5.616 1.473-9.709-5.149-10.643-6.388-0.934-1.249-4.722-6.063-4.946-6.368-0.223-0.315-0.487-1.919 1.341-1.96s4.763 4.499 5.119 4.722c0.355 0.223 1.026 0.315 0.894-0.894-0.132-1.198-1.696-11.578-1.696-11.578s-0.66-2.488 0.965-2.762c1.635-0.274 1.818 1.798 1.899 2.234 0.091 0.447 1.137 7.14 1.229 7.597s0.183 0.752 0.559 0.691c0.467-0.071 0.305-0.65 0.315-0.823s0.030-1.016 0.030-1.016c0 0-0.112-1.188 1.3-1.31 1.402-0.122 1.686 0.711 1.706 1.005 0.030 0.295 0.091 0.873 0.091 0.873s-0.081 0.833 0.518 0.863c0.467-0.030 0.467-0.335 0.487-0.609 0.010-0.162 0.041-0.386 0.081-0.64 0.071-0.416 0.284-1.188 1.625-1.097s1.574 0.995 1.564 1.442c-0.010 0.437-0.051 1.148-0.041 1.422s-0.020 0.548 0.264 0.548c0.274 0 0.295-0.416 0.345-0.66 0.030-0.264 0-1.605 1.412-1.554z"></path>
<path d="M6.171 2.417l3.219-2.316c0.162-0.122 0.376-0.132 0.559-0.041s0.295 0.274 0.295 0.477v1.239l8.257 0.437c0.467 0.071 0.975 0.406 0.975 0.995 0 0.447-0.315 0.904-1.026 0.904-0.203 0-5.697-0.112-8.206-0.173v1.229c0 0.203-0.112 0.386-0.295 0.477-0.081 0.041-0.162 0.061-0.244 0.061-0.112 0-0.223-0.030-0.315-0.102l-3.219-2.316c-0.142-0.102-0.223-0.264-0.223-0.437s0.081-0.335 0.223-0.437z"></path>
</symbol>
<symbol id="icon-up" viewBox="0 0 32 32">
<path d="M25.293 16.43c1.304 0.18 1.095 1.567 1.095 1.567l-0.882 6.425c0 0-0.607 5.928-5.989 6.732-5.391 0.803-8.537-5.792-9.283-7.044-0.745-1.261-3.791-6.138-3.968-6.445-0.177-0.317-0.26-1.841 1.45-1.693s3.988 4.683 4.297 4.928c0.309 0.245 0.925 0.398 0.925-0.743-0.001-1.132-0.406-8.57-0.406-8.57s-0.363-2.389 1.181-2.48c1.554-0.090 1.514 1.862 1.545 2.278 0.040 0.426 0.336 4.371 0.374 4.807s0.094 0.72 0.451 0.701c0.443-0.019 0.35-0.576 0.377-0.736s0.132-0.945 0.132-0.945 0.017-1.12 1.346-1.090c1.32 0.029 1.501 0.835 1.49 1.112-0.002 0.278-0.004 0.824-0.004 0.824s-0.16 0.769 0.396 0.858c0.439 0.019 0.47-0.265 0.517-0.519 0.026-0.151 0.077-0.356 0.141-0.589 0.109-0.381 0.386-1.080 1.628-0.858s1.368 1.089 1.313 1.505c-0.054 0.407-0.164 1.066-0.182 1.323s-0.075 0.51 0.191 0.539c0.256 0.028 0.317-0.359 0.389-0.581 0.055-0.243 0.163-1.497 1.475-1.307z"></path>
<path d="M22.529 12.593l-2.282-2.941c-0.12-0.148-0.137-0.348-0.057-0.523s0.247-0.286 0.438-0.293l1.162-0.042 0.128-7.761c0.051-0.441 0.348-0.929 0.9-0.949 0.419-0.015 0.859 0.264 0.883 0.931 0.007 0.191 0.090 5.349 0.118 7.704l1.153-0.042c0.191-0.007 0.366 0.092 0.458 0.26 0.041 0.075 0.063 0.15 0.065 0.227 0.004 0.105-0.021 0.211-0.085 0.299l-2.062 3.099c-0.090 0.137-0.24 0.219-0.402 0.225s-0.317-0.065-0.417-0.195z"></path>
</symbol>
<symbol id="icon-down" viewBox="0 0 32 32">
<path d="M24.412 17.733c1.197 0.166 1.005 1.439 1.005 1.439l-0.81 5.898c0 0-0.558 5.441-5.497 6.18-4.949 0.737-7.837-5.317-8.522-6.466-0.684-1.157-3.48-5.635-3.643-5.917-0.162-0.291-0.238-1.69 1.331-1.554s3.66 4.299 3.944 4.523c0.284 0.225 0.849 0.365 0.849-0.682-0.001-1.039-0.372-10.076-0.372-10.076s-0.333-2.193 1.084-2.276c1.426-0.082 1.39 1.71 1.418 2.091 0.037 0.391 0.308 6.222 0.344 6.622s0.086 0.661 0.414 0.644c0.407-0.017 0.322-0.528 0.346-0.675s0.121-0.867 0.121-0.867c0 0 0.015-1.028 1.236-1.001 1.212 0.026 1.378 0.766 1.368 1.021-0.001 0.255-0.003 0.757-0.003 0.757s-0.147 0.706 0.363 0.788c0.403 0.018 0.431-0.243 0.474-0.476 0.024-0.138 0.071-0.327 0.129-0.541 0.1-0.35 0.354-0.991 1.494-0.788s1.256 1 1.205 1.381c-0.049 0.373-0.151 0.978-0.167 1.214s-0.069 0.468 0.175 0.494c0.235 0.026 0.291-0.329 0.357-0.533 0.051-0.223 0.15-1.375 1.354-1.199z"></path>
<path d="M21.874 11.56l-2.095-2.7c-0.11-0.136-0.125-0.319-0.052-0.48s0.227-0.262 0.402-0.269l1.067-0.039 0.117-7.124c0.047-0.405 0.319-0.852 0.827-0.871 0.385-0.014 0.788 0.243 0.811 0.855 0.006 0.175 0.083 4.91 0.109 7.072l1.058-0.039c0.175-0.006 0.336 0.084 0.42 0.239 0.038 0.069 0.058 0.138 0.060 0.208 0.004 0.096-0.019 0.193-0.078 0.274l-1.893 2.845c-0.083 0.126-0.22 0.201-0.369 0.206s-0.291-0.059-0.383-0.179z"></path>
</symbol>
<symbol id="icon-alert" viewBox="0 0 32 32">
<path d="M17.155 4l12.701 22c0.117 0.203 0.179 0.433 0.179 0.667s-0.062 0.464-0.179 0.667c-0.117 0.203-0.285 0.371-0.488 0.488s-0.433 0.179-0.667 0.179h-25.403c-0.234 0-0.464-0.062-0.667-0.179s-0.371-0.285-0.488-0.488c-0.117-0.203-0.179-0.433-0.179-0.667s0.062-0.464 0.179-0.667l12.701-22c0.117-0.203 0.285-0.371 0.488-0.488s0.433-0.179 0.667-0.179c0.234 0 0.464 0.062 0.667 0.179s0.371 0.285 0.488 0.488v0zM5.608 25.334h20.784l-10.392-18-10.392 18zM14.667 21.334h2.667v2.667h-2.667v-2.667zM14.667 12h2.667v6.667h-2.667v-6.667z"></path>
</symbol>
<symbol id="icon-paw" viewBox="0 0 32 32">
<path d="M15.071 5.179c0 2.86-1.391 5.179-3.108 5.179s-3.108-2.319-3.108-5.179c0-2.86 1.391-5.179 3.108-5.179s3.108 2.319 3.108 5.179zM16.107 12.43c-4.005 0-6.862 5.179-7.379 7.769-0.201 1.007-1.009 1.779-1.922 2.65-1.435 1.371-3.128 2.988-3.128 6.154 0 3.753 3.944 3.155 7.988 2.54 1.536-0.233 3.087-0.469 4.442-0.469s2.906 0.235 4.442 0.469c4.045 0.614 7.988 1.213 7.988-2.54 0-3.166-1.693-4.784-3.128-6.154-0.913-0.872-1.721-1.644-1.922-2.65-0.518-2.59-3.375-7.769-7.38-7.769zM20.25 10.358c1.716 0 3.108-2.319 3.108-5.179s-1.391-5.179-3.108-5.179c-1.716 0-3.108 2.319-3.108 5.179s1.391 5.179 3.108 5.179zM29.97 13.975c-0.234 2.276-1.578 4.003-3 3.856s-2.386-2.11-2.152-4.387c0.234-2.276 1.578-4.003 3-3.856s2.386 2.11 2.152 4.387zM5.030 17.831c-1.423 0.146-2.766-1.58-3-3.856s0.729-4.24 2.152-4.387c1.423-0.146 2.766 1.58 3 3.856s-0.729 4.24-2.152 4.387z"></path>
</symbol>
<symbol id="icon-dots" viewBox="0 0 32 32">
<path d="M16 8c1.473 0 2.667-1.194 2.667-2.667s-1.194-2.667-2.667-2.667c-1.473 0-2.667 1.194-2.667 2.667s1.194 2.667 2.667 2.667zM16 15.111c1.473 0 2.667-1.194 2.667-2.667s-1.194-2.667-2.667-2.667c-1.473 0-2.667 1.194-2.667 2.667s1.194 2.667 2.667 2.667zM11.556 8.889c0 1.473-1.194 2.667-2.667 2.667s-2.667-1.194-2.667-2.667c0-1.473 1.194-2.667 2.667-2.667s2.667 1.194 2.667 2.667zM23.111 11.555c-1.473 0-2.667-1.194-2.667-2.667s1.194-2.667 2.667-2.667c1.473 0 2.667 1.194 2.667 2.667s-1.194 2.667-2.667 2.667zM18.667 19.555c0 1.473-1.194 2.667-2.667 2.667s-2.667-1.194-2.667-2.667c0-1.473 1.194-2.667 2.667-2.667s2.667 1.194 2.667 2.667zM8.889 18.667c1.473 0 2.667-1.194 2.667-2.667s-1.194-2.667-2.667-2.667c-1.473 0-2.667 1.194-2.667 2.667s1.194 2.667 2.667 2.667zM20.444 16c0 1.473 1.194 2.667 2.667 2.667s2.667-1.194 2.667-2.667c0-1.473-1.194-2.667-2.667-2.667s-2.667 1.194-2.667 2.667zM2.667 16c1.473 0 2.667-1.194 2.667-2.667s-1.194-2.667-2.667-2.667c-1.473 0-2.667 1.194-2.667 2.667s1.194 2.667 2.667 2.667zM26.667 13.333c0 1.473 1.194 2.667 2.667 2.667s2.667-1.194 2.667-2.667c0-1.473-1.194-2.667-2.667-2.667s-2.667 1.194-2.667 2.667zM16 29.333c1.473 0 2.667-1.194 2.667-2.667s-1.194-2.667-2.667-2.667c-1.473 0-2.667 1.194-2.667 2.667s1.194 2.667 2.667 2.667zM11.556 23.111c0 1.473-1.194 2.667-2.667 2.667s-2.667-1.194-2.667-2.667c0-1.473 1.194-2.667 2.667-2.667s2.667 1.194 2.667 2.667zM23.111 25.778c-1.473 0-2.667-1.194-2.667-2.667s1.194-2.667 2.667-2.667c1.473 0 2.667 1.194 2.667 2.667s-1.194 2.667-2.667 2.667zM5.333 20.445c0 1.473-1.194 2.667-2.667 2.667s-2.667-1.194-2.667-2.667c0-1.473 1.194-2.667 2.667-2.667s2.667 1.194 2.667 2.667zM29.333 23.111c-1.473 0-2.667-1.194-2.667-2.667s1.194-2.667 2.667-2.667c1.473 0 2.667 1.194 2.667 2.667s-1.194 2.667-2.667 2.667z"></path>
</symbol>
<symbol id="icon-circles" viewBox="0 0 32 32">
<path d="M9.697 5.333c0 2.678-2.171 4.848-4.848 4.848-0.401 0-0.79-0.049-1.162-0.14-0.464 1.252-0.717 2.606-0.717 4.019 0 4.207 2.244 7.89 5.601 9.917 0.869-1.302 2.352-2.159 4.035-2.159 2.209 0 4.073 1.477 4.658 3.497 3.909-0.941 7.045-3.864 8.284-7.647-1.89-0.662-3.245-2.461-3.245-4.577 0-1.852 1.038-3.461 2.564-4.277-1.913-3.756-5.817-6.329-10.321-6.329-1.845 0-3.589 0.431-5.136 1.199 0.186 0.515 0.288 1.070 0.288 1.649zM1.879 9.166c-1.143-0.887-1.879-2.274-1.879-3.833 0-2.678 2.171-4.848 4.848-4.848 1.376 0 2.618 0.573 3.5 1.494 1.858-0.955 3.964-1.494 6.197-1.494 5.42 0 10.098 3.176 12.275 7.769 0.109-0.007 0.22-0.011 0.331-0.011 2.678 0 4.848 2.171 4.848 4.848 0 2.539-1.951 4.622-4.436 4.831-1.398 4.72-5.293 8.368-10.155 9.411-0.325 2.362-2.352 4.181-4.803 4.181-2.678 0-4.848-2.171-4.848-4.848 0-0.275 0.023-0.545 0.067-0.808-4.095-2.338-6.855-6.745-6.855-11.798 0-1.726 0.322-3.376 0.909-4.894z"></path>
</symbol>
<symbol id="icon-arrows" viewBox="0 0 32 32">
<path d="M0.381 16.895l8.275 8.275c0.508 0.508 1.331 0.508 1.839 0s0.508-1.331 0-1.839l-6.055-6.055h9.515v-2.601h-9.515l6.055-6.055c0.508-0.508 0.508-1.331 0-1.839s-1.331-0.508-1.839 0l-8.275 8.275c-0.508 0.508-0.508 1.331 0 1.839z"></path>
<path d="M17.569 14.675v2.601h9.991l-6.055 6.055c-0.508 0.508-0.508 1.331 0 1.839s1.331 0.508 1.839 0l8.275-8.275c0.508-0.508 0.508-1.331 0-1.839l-8.275-8.275c-0.508-0.508-1.331-0.508-1.839 0s-0.508 1.331 0 1.839l6.055 6.055h-9.991z"></path>
</symbol>
<symbol id="icon-square" viewBox="0 0 32 32">
<path d="M1.113 14.114l4.328-4.328 1.414 1.414-4.328 4.328c-0.26 0.26-0.26 0.682 0 0.943l4.531 4.531-1.414 1.414-4.531-4.531c-1.041-1.041-1.041-2.73 0-3.771zM9.4 5.827l1.414 1.414 4.715-4.714c0.26-0.26 0.682-0.26 0.943 0l4.531 4.531 1.414-1.414-4.531-4.531c-1.041-1.041-2.73-1.041-3.771 0l-4.714 4.715zM29.473 16.471l-4.714 4.714 1.414 1.414 4.714-4.714c1.041-1.041 1.041-2.73 0-3.771l-4.511-4.511-1.414 1.414 4.511 4.511c0.26 0.26 0.26 0.682-0 0.943zM15.529 29.473l-4.511-4.511-1.414 1.414 4.511 4.511c1.041 1.041 2.73 1.041 3.771 0l4.328-4.328-1.414-1.414-4.328 4.328c-0.26 0.26-0.682 0.26-0.943 0zM18.065 8.579c-1.041-1.041-2.73-1.041-3.771 0l-5.535 5.535c-1.041 1.041-1.041 2.73 0 3.771l5.535 5.535c1.041 1.041 2.73 1.041 3.771 0l5.535-5.535c1.041-1.041 1.041-2.73 0-3.771l-5.535-5.535z"></path>
</symbol>
<symbol id="icon-home" viewBox="0 0 32 32">
<path d="M27.344 12.076l-10.647-11.392c-0.355-0.38-0.946-0.38-1.3 0l-10.726 11.486c-0.227 0.243-0.305 0.57-0.256 0.886v17.889c0 0.359 0.276 0.654 0.611 0.654h6.934c0.335 0 0.611-0.295 0.611-0.654v-10.242h6.865v10.242c0 0.359 0.276 0.654 0.611 0.654h6.934c0.335 0 0.611-0.295 0.611-0.654v-18.058c0.039-0.285-0.039-0.591-0.246-0.812z"></path>
</symbol>
<symbol id="icon-mountain" viewBox="0 0 32 32">
<path d="M32 26.667h-32l9.333-21.333 9.778 13.333 6.222-6.222 6.667 14.222z"></path>
</symbol>
<symbol id="icon-close" viewBox="0 0 32 32">
<path d="M16 14.115l6.6-6.6 1.885 1.885-6.6 6.6 6.6 6.6-1.885 1.885-6.6-6.6-6.6 6.6-1.885-1.885 6.6-6.6-6.6-6.6 1.885-1.885 6.6 6.6z"></path>
</symbol>
<symbol id="icon-hand" viewBox="0 0 32 32">
<path fill="#fff" style="fill: var(--color1, #fff)" d="M22.494 15.035c0.034-0.205 0.017-1.325 1.19-1.291s1.122 1.291 1.114 1.282l-0.162 5.812c0 0 0.043 5.342-4.658 6.582-4.692 1.239-8.127-4.325-8.909-5.377s-3.953-5.094-4.14-5.359c-0.179-0.265-0.408-1.616 1.122-1.65 1.522-0.034 3.987 3.787 4.284 3.975s0.859 0.256 0.748-0.752c-0.068-0.59-0.536-3.812-0.918-6.394 0 0-0.255-1.735-0.255-1.744l-0.093-0.65c-0.094-0.59-0.145-0.957-0.145-0.957s-0.553-2.086 0.808-2.316c1.369-0.231 1.522 1.504 1.598 1.881 0.017 0.094 0.077 0.496 0.17 1.043l0.094 0.633c0.026 0.145 0.23 1.453 0.23 1.453 0.238 1.522 0.485 3.052 0.519 3.248 0.076 0.385 0.162 0.633 0.468 0.581 0.391-0.060 0.255-0.547 0.264-0.692s0.026-0.855 0.026-0.855-0.085-1 1.088-1.103c1.173-0.094 1.403 0.598 1.428 0.846s0.076 0.735 0.076 0.735-0.059 0.701 0.434 0.727c0.391-0.026 0.391-0.282 0.408-0.513 0.008-0.128 0.043-0.325 0.068-0.539 0.060-0.35 0.238-1 1.36-0.923s1.318 0.846 1.309 1.214c-0.017 0.368-0.042 0.966-0.034 1.197 0.017 0.231-0.008 0.462 0.221 0.462 0.238 0 0.255-0.35 0.289-0.556z"></path>
<path fill="none" stroke="#fff" style="stroke: var(--color1, #fff)" stroke-linejoin="miter" stroke-linecap="butt" stroke-miterlimit="4" stroke-width="0.8" d="M15.6 7.2c0 1.546-1.254 2.8-2.8 2.8s-2.8-1.254-2.8-2.8c0-1.546 1.254-2.8 2.8-2.8s2.8 1.254 2.8 2.8z"></path>
<path fill="none" stroke="#fff" style="stroke: var(--color1, #fff)" stroke-linejoin="miter" stroke-linecap="butt" stroke-miterlimit="4" stroke-width="0.4" d="M15.8 7.2c0 1.657-1.343 3-3 3s-3-1.343-3-3c0-1.657 1.343-3 3-3s3 1.343 3 3z"></path>
</symbol>
<symbol id="icon-hand2" viewBox="0 0 32 32">
<path fill="#fff" style="fill: var(--color1, #fff)" d="M22.494 15.035c0.034-0.205 0.017-1.325 1.19-1.291s1.122 1.291 1.114 1.282l-0.162 5.812c0 0 0.043 5.342-4.658 6.582-4.692 1.239-8.127-4.325-8.909-5.377s-3.953-5.094-4.14-5.359c-0.179-0.265-0.408-1.616 1.122-1.65 1.522-0.034 3.987 3.787 4.284 3.975s0.859 0.256 0.748-0.752c-0.068-0.59-0.536-3.812-0.918-6.394 0 0-0.255-0.935-0.255-0.944l-0.093-0.65c-0.094-0.59-0.145-0.957-0.145-0.957s-0.553-2.086 0.808-2.316c1.369-0.231 1.522 1.504 1.598 1.881 0.017 0.094 0.077 0.496 0.17 1.043l0.094 0.633c0.026 0.145 0.23 0.653 0.23 0.653 0.238 1.522 0.485 3.052 0.519 3.248 0.076 0.385 0.162 0.633 0.468 0.581 0.391-0.060 0.255-0.547 0.264-0.692s0.026-0.855 0.026-0.855-0.085-1 1.088-1.103c1.173-0.094 1.403 0.598 1.428 0.846s0.076 0.735 0.076 0.735-0.059 0.701 0.434 0.727c0.391-0.026 0.391-0.282 0.408-0.513 0.008-0.128 0.043-0.325 0.068-0.539 0.060-0.35 0.238-1 1.36-0.923s1.318 0.846 1.309 1.214c-0.017 0.368-0.042 0.966-0.034 1.197 0.017 0.231-0.008 0.462 0.221 0.462 0.238 0 0.255-0.35 0.289-0.556z"></path>
<path fill="none" stroke="#fff" style="stroke: var(--color1, #fff)" stroke-linejoin="miter" stroke-linecap="butt" stroke-miterlimit="4" stroke-width="0.4" d="M17.4 8c0 2.54-2.059 4.6-4.6 4.6s-4.6-2.059-4.6-4.6c0-2.54 2.059-4.6 4.6-4.6s4.6 2.059 4.6 4.6z"></path>
<path fill="none" stroke="#fff" style="stroke: var(--color1, #fff)" stroke-linejoin="miter" stroke-linecap="butt" stroke-miterlimit="4" stroke-width="0.8" d="M15.6 8c0 1.546-1.254 2.8-2.8 2.8s-2.8-1.254-2.8-2.8c0-1.546 1.254-2.8 2.8-2.8s2.8 1.254 2.8 2.8z"></path>
</symbol>
</defs>
</svg>
