<svg width="80" height="80" fill="none" xmlns="http://www.w3.org/2000/svg"><path fill-rule="evenodd" clip-rule="evenodd" d="M24.242 13.334c0 6.694-5.426 12.12-12.12 12.12a12.15 12.15 0 01-2.906-.35 28.88 28.88 0 00-1.792 10.048c0 10.518 5.611 19.725 14.003 24.792a12.11 12.11 0 0110.088-5.398c5.522 0 10.181 3.692 11.644 8.743 9.772-2.351 17.612-9.66 20.711-19.118-4.724-1.655-8.112-6.153-8.112-11.443a12.12 12.12 0 016.408-10.693c-4.783-9.39-14.541-15.822-25.802-15.822A28.82 28.82 0 0023.523 9.21a12.09 12.09 0 01.72 4.124zM4.697 22.916A12.1 12.1 0 010 13.334C0 6.639 5.427 1.212 12.121 1.212c3.44 0 6.545 1.433 8.751 3.734a33.795 33.795 0 0115.492-3.733c13.55 0 25.245 7.94 30.687 19.422.273-.019.55-.028.828-.028C74.573 20.607 80 26.034 80 32.728c0 6.347-4.878 11.555-11.09 12.078-3.495 11.8-13.233 20.92-25.388 23.529-.812 5.905-5.879 10.453-12.007 10.453-6.694 0-12.121-5.426-12.121-12.12 0-.69.057-1.364.167-2.021C9.325 58.803 2.424 47.783 2.424 35.152c0-4.314.805-8.44 2.273-12.236z" fill="#2D182A"/></svg>