<svg width="80" height="80" fill="none" xmlns="http://www.w3.org/2000/svg"><path fill-rule="evenodd" clip-rule="evenodd" d="M40 20a6.667 6.667 0 100-13.333A6.667 6.667 0 0040 20zm0 17.779a6.667 6.667 0 100-13.334 6.667 6.667 0 000 13.334zM28.89 22.222a6.667 6.667 0 11-13.334 0 6.667 6.667 0 0113.333 0zm28.888 6.667a6.667 6.667 0 110-13.334 6.667 6.667 0 010 13.334zm-11.111 20a6.667 6.667 0 11-13.334 0 6.667 6.667 0 0113.334 0zm-24.445-2.222a6.667 6.667 0 100-13.333 6.667 6.667 0 000 13.333zM51.111 40a6.667 6.667 0 1013.333 0 6.667 6.667 0 00-13.333 0zM6.667 40a6.667 6.667 0 100-13.333 6.667 6.667 0 000 13.333zm60-6.666a6.667 6.667 0 1013.333 0 6.667 6.667 0 00-13.333 0zM40 73.334A6.667 6.667 0 1040 60a6.667 6.667 0 000 13.334zM28.89 57.779a6.667 6.667 0 11-13.334 0 6.667 6.667 0 0113.333 0zm28.888 6.666a6.667 6.667 0 110-13.333 6.667 6.667 0 010 13.333zM13.333 51.112a6.667 6.667 0 11-13.333 0 6.667 6.667 0 0113.333 0zm60 6.667a6.667 6.667 0 110-13.334 6.667 6.667 0 010 13.334z" fill="#2D182A"/></svg>