<svg width="80" height="80" fill="none" xmlns="http://www.w3.org/2000/svg"><path d="M61.03 44.333c2.992.414 2.513 3.597 2.513 3.597L61.52 62.676s-1.394 13.603-13.744 15.449C35.404 79.968 28.183 64.832 26.471 61.96c-1.71-2.894-8.699-14.087-9.106-14.792-.405-.726-.597-4.224 3.328-3.885 3.924.34 9.151 10.747 9.86 11.308.71.562 2.123.914 2.123-1.705-.003-2.598-.931-25.191-.931-25.191s-.834-5.483 2.71-5.691c3.566-.206 3.474 4.274 3.547 5.228.091.978.77 15.556.859 16.556.089 1 .216 1.652 1.035 1.61 1.017-.044.804-1.322.866-1.69.062-.367.302-2.167.302-2.167s.038-2.57 3.09-2.503c3.03.066 3.445 1.916 3.42 2.552-.004.638-.008 1.892-.008 1.892s-.369 1.764.907 1.97c1.008.043 1.08-.61 1.187-1.192.06-.346.177-.817.323-1.351.25-.875.886-2.479 3.736-1.97 2.85.508 3.139 2.499 3.013 3.453-.124.933-.377 2.446-.419 3.036-.042.59-.171 1.17.438 1.236.587.064.728-.823.893-1.333.127-.559.375-3.437 3.386-2.999zM54.685 28.9l-5.237-6.749c-.276-.34-.314-.798-.132-1.2a1.14 1.14 0 011.005-.67l2.667-.098.293-17.81c.117-1.011.798-2.13 2.066-2.177.962-.035 1.971.607 2.027 2.138.016.437.206 12.274.271 17.68l2.646-.097c.437-.016.84.21 1.05.597.095.172.145.345.151.52.009.24-.048.483-.194.686l-4.733 7.112a1.151 1.151 0 01-.922.515 1.151 1.151 0 01-.958-.446z" fill="#000"/></svg>