<svg width="80" height="80" fill="none" xmlns="http://www.w3.org/2000/svg"><path d="M56.234 37.588c.085-.513.042-3.312 2.975-3.227 2.933.086 2.805 3.227 2.784 3.206l-.404 14.531s.107 13.356-11.646 16.454c-11.73 3.1-20.316-10.812-22.272-13.44-1.955-2.63-9.882-12.737-10.35-13.4-.446-.662-1.02-4.038 2.806-4.124 3.804-.085 9.967 9.467 10.71 9.937.745.47 2.147.641 1.871-1.88-.17-1.475-1.339-9.531-2.295-15.985 0 0-.638-2.338-.638-2.36l-.233-1.623c-.234-1.475-.362-2.394-.362-2.394s-1.381-5.214 2.02-5.79c3.42-.578 3.803 3.76 3.994 4.7.043.235.192 1.24.425 2.607l.234 1.582c.064.363.574 1.633.574 1.633.595 3.803 1.212 7.629 1.297 8.12.19.962.403 1.581 1.168 1.453.978-.15.638-1.367.66-1.73.02-.364.063-2.138.063-2.138s-.213-2.5 2.72-2.756c2.933-.235 3.507 1.495 3.57 2.115l.192 1.838s-.149 1.752 1.084 1.816c.977-.064.977-.705 1.02-1.282.02-.32.106-.812.17-1.346.148-.876.595-2.5 3.4-2.308 2.805.192 3.294 2.116 3.273 3.034-.043.92-.106 2.415-.085 2.992.042.577-.021 1.154.552 1.154.595 0 .638-.876.723-1.389z" fill="#fff"/><circle cx="32" cy="20" r="11.5" stroke="#fff"/><circle cx="32" cy="20" r="7" stroke="#fff" stroke-width="2"/></svg>