<svg width="80" height="80" fill="none" xmlns="http://www.w3.org/2000/svg"><path fill-rule="evenodd" clip-rule="evenodd" d="M37.678 12.948c0 7.151-3.478 12.948-7.769 12.948-4.29 0-7.769-5.797-7.769-12.948C22.14 5.798 25.62 0 29.91 0c4.29 0 7.768 5.797 7.768 12.948zm2.59 18.128c-10.012 0-17.155 12.948-18.45 19.422-.503 2.517-2.523 4.447-4.804 6.626-3.588 3.427-7.821 7.471-7.821 15.386 0 9.383 9.859 7.886 19.97 6.35 3.84-.582 7.718-1.171 11.104-1.171 3.387 0 7.264.589 11.105 1.172 10.111 1.535 19.97 3.032 19.97-6.351 0-7.915-4.233-11.96-7.82-15.386-2.282-2.18-4.302-4.11-4.805-6.626-1.295-6.474-8.438-19.422-18.45-19.422zm10.358-5.18c4.29 0 7.769-5.797 7.769-12.948C58.395 5.798 54.917 0 50.626 0c-4.29 0-7.769 5.797-7.769 12.948 0 7.151 3.479 12.948 7.77 12.948zm24.3 9.041c-.586 5.69-3.944 10.007-7.5 9.641-3.558-.366-5.966-5.276-5.38-10.967.586-5.69 3.944-10.007 7.5-9.64 3.557.365 5.965 5.275 5.38 10.966zm-62.351 9.641c-3.557.366-6.915-3.95-7.5-9.64-.586-5.692 1.822-10.602 5.379-10.968 3.556-.366 6.915 3.95 7.5 9.641.586 5.691-1.822 10.601-5.379 10.967z" fill="#2D182A"/></svg>