<svg width="80" height="80" fill="none" xmlns="http://www.w3.org/2000/svg"><path fill="#fff" d="M0 0h80v80H0z"/><path d="M62.44 38.793c.111-.673.056-4.343 3.901-4.231 3.845.112 3.678 4.23 3.65 4.203l-.53 19.052s.14 17.51-15.269 21.573c-15.38 4.063-26.637-14.177-29.2-17.623-2.564-3.446-12.957-16.698-13.57-17.567-.586-.869-1.338-5.295 3.678-5.407 4.987-.112 13.068 12.412 14.043 13.028.975.616 2.814.84 2.452-2.466-.223-1.933-1.755-12.496-3.01-20.957 0 0-.835-3.065-.835-3.093l-.307-2.13c-.306-1.933-.473-3.138-.473-3.138s-1.812-6.836 2.647-7.592c4.486-.757 4.987 4.93 5.238 6.163.056.309.25 1.625.557 3.419l.307 2.073c.083.476.752 2.14.752 2.14.78 4.988 1.588 10.003 1.7 10.647.25 1.261.53 2.074 1.532 1.906 1.282-.197.836-1.794.864-2.27.028-.476.084-2.802.084-2.802s-.279-3.278 3.566-3.614c3.845-.308 4.598 1.961 4.681 2.774l.251 2.41s-.195 2.297 1.421 2.38c1.282-.083 1.282-.924 1.338-1.68.027-.42.139-1.065.222-1.765.195-1.149.78-3.278 4.459-3.026 3.678.252 4.319 2.774 4.29 3.978-.055 1.205-.139 3.166-.11 3.923.055.756-.029 1.513.724 1.513.78 0 .836-1.149.947-1.821z" fill="#000"/><circle cx="30.667" cy="15.733" r="13.734" stroke="#000" stroke-width="3.999"/><path d="M37.157 15.733a6.49 6.49 0 11-12.98 0 6.49 6.49 0 0112.98 0z" stroke="#000" stroke-width="7.998"/></svg>