<svg width="80" height="80" fill="none" xmlns="http://www.w3.org/2000/svg"><path fill="#fff" d="M0 0h80v80H0z"/><path d="M63.184 37.397c.115-.695.057-4.49 4.033-4.374 3.975.116 3.803 4.374 3.774 4.345l-.547 19.698s.144 18.105-15.788 22.305c-15.902 4.2-27.54-14.658-30.19-18.22-2.65-3.564-13.396-17.266-14.03-18.164-.605-.897-1.383-5.474 3.803-5.59 5.156-.116 13.51 12.832 14.519 13.47 1.008.637 2.91.869 2.535-2.55-.23-1.998-1.815-12.919-3.111-21.667 0 0-.864-5.88-.864-5.91L27 18.54c-.317-1.999-.49-3.244-.49-3.244s-1.873-7.069 2.737-7.85c4.638-.783 5.156 5.098 5.416 6.372.057.319.259 1.68.576 3.534l.317 2.144c.086.492.777 4.924.777 4.924.807 5.157 1.643 10.342 1.758 11.008.26 1.304.547 2.144 1.584 1.97 1.325-.203.864-1.854.893-2.347.03-.492.087-2.896.087-2.896s-.288-3.39 3.687-3.737c3.976-.319 4.754 2.028 4.84 2.868.086.84.26 2.49.26 2.49s-.202 2.376 1.468 2.463c1.326-.087 1.326-.956 1.383-1.738.03-.434.144-1.1.23-1.825.202-1.188.807-3.39 4.61-3.128 3.803.26 4.465 2.867 4.437 4.113-.058 1.246-.145 3.273-.116 4.056.058.782-.029 1.564.75 1.564.806 0 .864-1.188.979-1.883z" fill="#000"/><path d="M37.178 10.844a6.846 6.846 0 11-13.69 0 6.846 6.846 0 0113.69 0z" fill="#000" stroke="#fff" stroke-width="7.998"/><path d="M39.178 10.844a8.845 8.845 0 11-17.69 0 8.845 8.845 0 0117.69 0z" fill="#000" stroke="#fff" stroke-width="3.999"/></svg>