<svg width="80" height="80" fill="none" xmlns="http://www.w3.org/2000/svg"><path fill-rule="evenodd" clip-rule="evenodd" d="M2.781 35.285l10.82-10.819 3.535 3.536L6.316 38.82c-.65.65-.65 1.706 0 2.357l11.328 11.327-3.536 3.535L2.781 44.713a6.667 6.667 0 010-9.428zM23.5 14.567l3.535 3.535L38.822 6.316a1.666 1.666 0 012.357 0l11.326 11.327 3.536-3.536L44.714 2.78a6.667 6.667 0 00-9.428 0L23.5 14.567zm50.184 26.61L61.898 52.965l3.535 3.535L77.22 44.713a6.667 6.667 0 000-9.428L65.941 24.007l-3.535 3.535 11.278 11.279c.65.65.65 1.706 0 2.357zM38.822 73.684l-11.279-11.28-3.535 3.536 11.278 11.278a6.667 6.667 0 009.428 0L55.534 66.4l-3.536-3.535-10.82 10.819c-.65.65-1.705.65-2.356 0zm6.341-52.236a6.667 6.667 0 00-9.428 0L21.898 35.285a6.667 6.667 0 000 9.428l13.837 13.838a6.667 6.667 0 009.428 0l13.838-13.838a6.667 6.667 0 000-9.428L45.163 21.447z" fill="#2D182A"/></svg>