<svg width="80" height="80" fill="none" xmlns="http://www.w3.org/2000/svg"><path d="M63.413 38.82c3.504.1 3.351 3.833 3.351 3.833l-.482 17.265s.102 15.869-13.913 19.55c-14.04 3.681-24.273-12.873-26.609-15.97-2.336-3.123-11.806-15.158-12.365-15.92-.558-.787-1.218-4.798 3.352-4.9 4.57-.101 11.908 11.248 12.796 11.807.889.558 2.565.787 2.235-2.235-.33-2.996-4.24-28.944-4.24-28.944s-1.65-6.22 2.412-6.906c4.087-.685 4.544 4.494 4.747 5.586.229 1.117 2.844 17.849 3.072 18.991.229 1.143.458 1.88 1.397 1.727 1.168-.178.762-1.625.787-2.057.025-.431.076-2.539.076-2.539s-.28-2.97 3.25-3.275c3.504-.305 4.215 1.777 4.265 2.514l.229 2.183s-.203 2.082 1.295 2.158c1.168-.076 1.168-.838 1.219-1.523.025-.406.101-.965.203-1.6.177-1.04.71-2.97 4.062-2.742 3.352.229 3.935 2.488 3.91 3.605-.025 1.092-.127 2.87-.102 3.555.026.686-.05 1.371.66 1.371.686 0 .737-1.04.864-1.65.076-.66 0-4.012 3.529-3.885zM15.428 6.042L23.477.254c.406-.305.939-.33 1.396-.102.457.229.736.686.736 1.193v3.098l20.642 1.092c1.168.177 2.438 1.015 2.438 2.488 0 1.117-.788 2.26-2.565 2.26-.508 0-14.244-.28-20.515-.432v3.072c0 .508-.279.965-.736 1.193a1.351 1.351 0 01-.61.153c-.279 0-.558-.076-.786-.254l-8.049-5.79a1.336 1.336 0 01-.559-1.09c0-.432.204-.839.56-1.093z" fill="#000"/></svg>