<svg width="80" height="80" fill="none" xmlns="http://www.w3.org/2000/svg"><g clip-path="url(#clip0)" fill="#000"><path d="M63.117 43.303c2.977 1.178 1.684 4.336 1.684 4.336l-5.794 14.674S54.151 75.97 40.97 74.765C27.767 73.552 24.138 56.15 23.098 52.762c-1.033-3.409-5.415-16.693-5.658-17.521-.234-.85.449-4.5 4.405-3.164 3.955 1.337 6.72 13.368 7.31 14.125.588.756 1.956 1.474 2.614-1.223.65-2.675 5.377-26.174 5.377-26.174s.52-5.855 4.222-5.178c3.724.684 2.502 5.274 2.337 6.275-.152 1.03-3.12 16.212-3.28 17.264-.159 1.053-.192 1.756.662 1.918 1.058.211 1.16-1.158 1.317-1.52.156-.364.856-2.157.856-2.157s.686-2.638 3.81-1.8c3.104.83 3.066 2.84 2.88 3.487l-.484 1.946s-.823 1.725.44 2.257c1.026.298 1.264-.356 1.52-.929.15-.34.389-.796.674-1.31.477-.838 1.536-2.329 4.342-1.089 2.807 1.24 2.604 3.363 2.234 4.314-.362.93-1.003 2.424-1.194 3.02-.192.597-.471 1.162.14 1.384.588.213.956-.665 1.255-1.148.27-.544 1.25-3.445 4.24-2.236zM41.084 5.52L48.436.231c.371-.279.858-.302 1.276-.093.417.209.672.626.672 1.09v2.83l18.855.996c1.067.163 2.226.928 2.226 2.273 0 1.02-.719 2.064-2.342 2.064-.464 0-13.01-.255-18.739-.394v2.806c0 .464-.255.882-.672 1.09-.186.093-.372.14-.557.14-.255 0-.51-.07-.72-.232l-7.35-5.288a1.22 1.22 0 01-.511-.997c0-.395.186-.766.51-.998z"/></g><defs><clipPath id="clip0"><path fill="#fff" d="M0 0h80v80H0z"/></clipPath></defs></svg>