<svg width="80" height="80" fill="none" xmlns="http://www.w3.org/2000/svg"><path d="M63.234 41.075c3.26.451 2.738 3.919 2.738 3.919l-2.206 16.063s-1.519 14.82-14.972 16.83c-13.477 2.008-21.343-14.48-23.208-17.609-1.862-3.152-9.477-15.346-9.92-16.113-.442-.792-.65-4.602 3.625-4.233 4.275.37 9.97 11.708 10.742 12.32.772.611 2.313.995 2.312-1.859-.003-2.83-1.014-21.424-1.014-21.424s-.908-5.973 2.953-6.2c3.884-.224 3.784 4.656 3.863 5.695.1 1.066.839 10.929.936 12.018.097 1.09.235 1.8 1.128 1.754 1.108-.048.876-1.44.943-1.84.068-.4.33-2.361.33-2.361s.04-2.801 3.365-2.727c3.301.072 3.753 2.087 3.725 2.78l-.008 2.06s-.402 1.923.989 2.146c1.097.048 1.175-.663 1.292-1.297.065-.377.193-.89.352-1.472.272-.954.965-2.7 4.07-2.146 3.104.554 3.42 2.722 3.282 3.762-.134 1.016-.41 2.664-.456 3.307-.046.642-.187 1.274.477 1.346.64.07.793-.896.973-1.452.138-.608.408-3.744 3.689-3.267zm-6.912-9.592l-5.705-7.352c-.3-.371-.342-.87-.143-1.307a1.243 1.243 0 011.094-.731l2.906-.106.319-19.402c.127-1.102.87-2.322 2.25-2.372 1.049-.038 2.148.661 2.208 2.329.018.476.225 13.372.296 19.26l2.882-.105c.477-.017.915.229 1.145.65.102.187.157.376.164.566a1.19 1.19 0 01-.212.747l-5.155 7.749c-.226.342-.6.546-1.005.561a1.254 1.254 0 01-1.044-.487z" fill="#000"/></svg>