<svg width="79" height="45" viewBox="0 0 79 45" fill="none" xmlns="http://www.w3.org/2000/svg">
<g opacity="0.3">
<ellipse rx="14.6917" ry="14.3276" transform="matrix(-1 0 0 1 63.3083 29.6724)" fill="#2F52E0" fill-opacity="0.15" stroke="#2F52E0" stroke-width="2"/>
<path d="M52.7486 5.49454L53.243 6.96568M53.243 6.96568L55.6345 3L56.0936 5.49454M53.243 6.96568L54.382 10.3557M54.382 10.3557C49.5088 13.0208 38.4636 19.4 33.2691 23.5959M54.382 10.3557L54.8334 11.6989M33.2691 23.5959L31.5826 17.5835M33.2691 23.5959L35.6958 32.2949C38.0045 28.5594 49.4161 17.0078 54.8334 11.6989M29.2682 9.33229L33.2691 8.69267M29.2682 9.33229H26.9727M29.2682 9.33229L31.5826 17.5835M31.5826 17.5835C28.0127 20.014 19.8892 25.9242 15.9539 30.1201M63.2427 30.1201C60.1469 27.1523 57.4928 20.014 56.5527 16.8159L54.8334 11.6989" stroke="#2F52E0" stroke-width="2"/>
<ellipse rx="14.6917" ry="14.3276" transform="matrix(-1 0 0 1 15.6916 29.6724)" fill="#2F52E0" fill-opacity="0.15" stroke="#2F52E0" stroke-width="2"/>
<ellipse rx="3.54174" ry="3.45398" transform="matrix(-1 0 0 1 35.8928 32.3588)" fill="#2F52E0" fill-opacity="0.15" stroke="#2F52E0" stroke-width="2"/>
</g>
</svg>
