<?xml version="1.0" encoding="utf-8"?>
<!-- Generator: Adobe Illustrator 21.1.0, SVG Export Plug-In . SVG Version: 6.00 Build 0)  -->
<svg version="1.1" id="Ebene_1" xmlns="http://www.w3.org/2000/svg" xmlns:xlink="http://www.w3.org/1999/xlink" x="0px" y="0px"
	 viewBox="0 0 240.8 37.1" style="enable-background:new 0 0 240.8 37.1;" xml:space="preserve">
<style type="text/css">
	.st0{fill:#E30613;}
</style>
<g>
	<g>
		<g>
			<g>
				<polygon class="st0" points="21.3,0 14.2,12.3 21.3,24.6 28.3,12.3 				"/>
				<polygon class="st0" points="35.4,24.6 42.5,36.8 28.3,36.8 21.3,24.6 				"/>
				<polygon class="st0" points="7.1,24.6 0,36.8 14.2,36.8 21.3,24.6 				"/>
			</g>
		</g>
	</g>
	<g>
		<g>
			<g>
				<g>
					<path d="M123.5,20.4c-3,0-4.8-1.8-4.8-4.4h1.9c0,1.6,1,2.7,2.9,2.7c1.9,0,2.9-0.9,2.9-2.4c0-1.3-0.6-1.9-3.1-2.4
						c-3.1-0.7-4.4-1.8-4.4-4.2c0-2.5,2-3.8,4.5-3.8c3,0,4.4,1.7,4.4,3.8H126c0-1-0.6-2.2-2.5-2.2c-1.5,0-2.6,0.6-2.6,2.1
						c0,1.5,0.9,2.1,3.5,2.7c2.8,0.7,4,1.8,4,4C128.4,19,126.4,20.4,123.5,20.4z"/>
					<path d="M82.5,20.4c-3,0-4.8-1.8-4.8-4.4h1.9c0,1.6,1,2.7,2.9,2.7c1.9,0,2.9-0.9,2.9-2.4c0-1.3-0.6-1.9-3.1-2.4
						c-3.1-0.7-4.4-1.8-4.4-4.2c0-2.5,2-3.8,4.5-3.8c3,0,4.4,1.7,4.4,3.8h-1.8c0-1-0.6-2.2-2.5-2.2c-1.5,0-2.6,0.6-2.6,2.1
						c0,1.5,0.9,2.1,3.5,2.7c2.8,0.7,4,1.8,4,4C87.4,19,85.4,20.4,82.5,20.4z"/>
					<path d="M73.2,7.8v12.3h-1.9V7.8h-3.8V6.1H77v1.7H73.2z"/>
					<path d="M94.3,20.6c-3,0-4.9-2-4.9-4.8V6.1h1.9v9.5c0,2,1.2,3.2,3,3.2c1.8,0,3-1.1,3-3.2V6.1h1.9v9.6
						C99.2,18.5,97.4,20.6,94.3,20.6z"/>
					<path d="M107.7,20.1h-5.4V6.1h5.2c2.6,0,4.2,1.5,4.2,3.8c0,1.5-0.9,2.6-1.9,3c1.1,0.4,2.1,1.5,2.1,3.2
						C111.9,18.7,110.1,20.1,107.7,20.1z M107.5,7.8h-3.4v4.3h3.4c1.4,0,2.3-0.8,2.3-2.1C109.8,8.7,108.9,7.8,107.5,7.8z
						 M107.7,13.8h-3.6v4.6h3.6c1.5,0,2.3-1.1,2.3-2.4C110,14.8,109.2,13.8,107.7,13.8z"/>
					<path d="M114.5,20.1V6.1h1.9v13.9H114.5z"/>
					<path d="M63.7,20.1V6.1h1.9v13.9H63.7z"/>
					<path d="M58.7,20.1v-9.8l-3.2,7.3h-1.3l-3.3-7.3v9.8h-1.9V6.1h1.8l4.1,9.1l4-9.1h1.8v13.9H58.7z"/>
					<path d="M138.1,20.1v-6.2h-5.7v6.2h-1.9V6.1h1.9v6.1h5.7V6.1h1.9v13.9H138.1z"/>
					<path d="M143.2,20.1V6.1h1.9v13.9H143.2z"/>
				</g>
				<g>
					<path d="M197.9,20.1v-9.8l-3.2,7.3h-1.3l-3.3-7.3v9.8h-1.9V6.1h1.8l4.1,9.1l4-9.1h1.8v13.9H197.9z"/>
					<path d="M202.9,20.1V6.1h1.9v13.9H202.9z"/>
					<path d="M172.3,20.1v-6.2h-5.7v6.2h-1.9V6.1h1.9v6.1h5.7V6.1h1.9v13.9H172.3z"/>
					<path d="M177.3,20.1V6.1h8.4v1.7h-6.5v4.4h6v1.6h-6v4.5h6.5v1.7H177.3z"/>
					<path d="M231.2,20.1V6.1h1.9v12.3h6.8v1.7H231.2z"/>
					<path d="M227.8,20.1h2l-5-13.9h-1.6l-5,13.9h2l1-3h5.7L227.8,20.1z M221.6,15.5l2.3-6.8l2.3,6.8H221.6z"/>
					<g>
						<polygon points="212.6,20.4 212.6,20.4 212.6,20.4 						"/>
						<polygon points="212.6,5.8 212.6,5.8 212.6,5.8 						"/>
						<path d="M217.5,10.3c-0.1-1-0.4-2.1-1.3-3c-1-0.9-2.2-1.5-3.7-1.5c-1.5,0-2.7,0.5-3.7,1.5c-1.4,1.4-1.4,3.1-1.4,5.8
							c0,2.7,0,4.4,1.4,5.8c1,0.9,2.2,1.5,3.7,1.5c1.5,0,2.7-0.5,3.7-1.5c0.8-0.8,1.2-1.9,1.3-3l-1.9,0c-0.1,0.7-0.4,1.3-0.8,1.8
							c-0.5,0.6-1.3,0.9-2.2,0.9l0,0h0h0c-0.9,0-1.7-0.3-2.2-0.9c-0.7-0.8-0.9-1.6-0.9-4.7c0-3,0.2-3.9,0.9-4.7
							c0.5-0.6,1.3-0.9,2.2-0.9h0h0l0,0c0.9,0,1.7,0.3,2.2,0.9c0.4,0.5,0.7,1,0.8,1.8H217.5z"/>
					</g>
					<g>
						<polygon points="157.4,20.4 157.4,20.4 157.4,20.4 						"/>
						<polygon points="157.4,5.8 157.4,5.8 157.4,5.8 						"/>
						<path d="M162.4,10.3c-0.1-1-0.4-2.1-1.3-3c-1-0.9-2.2-1.5-3.7-1.5c-1.5,0-2.7,0.5-3.7,1.5c-1.4,1.4-1.4,3.1-1.4,5.8
							c0,2.7,0,4.4,1.4,5.8c1,0.9,2.2,1.5,3.7,1.5c1.5,0,2.7-0.5,3.7-1.5c0.8-0.8,1.2-1.9,1.3-3l-1.9,0c-0.1,0.7-0.4,1.3-0.8,1.8
							c-0.5,0.6-1.3,0.9-2.2,0.9l0,0h0h0c-0.9,0-1.7-0.3-2.2-0.9c-0.7-0.8-0.9-1.6-0.9-4.7c0-3,0.2-3.9,0.9-4.7
							c0.5-0.6,1.3-0.9,2.2-0.9h0h0l0,0c0.9,0,1.7,0.3,2.2,0.9c0.4,0.5,0.7,1,0.8,1.8H162.4z"/>
					</g>
				</g>
			</g>
		</g>
		<g>
			<g>
				<g>
					<path d="M119.2,36.8V22.9h8.4v1.7H121V29h6v1.6h-6v4.5h6.5v1.7H119.2z"/>
					<path d="M91.1,36.8h2l-5-13.9h-1.6l-5,13.9h2l1-3h5.7L91.1,36.8z M85,32.3l2.3-6.8l2.3,6.8H85z"/>
					<path d="M58.5,36.8h2l-5-13.9h-1.6l-5,13.9h2l1-3h5.7L58.5,36.8z M52.4,32.3l2.3-6.8l2.3,6.8H52.4z"/>
					<path d="M78.1,36.8h-1.4L72,22.9h2l3.4,10.5l3.4-10.5h2L78.1,36.8z"/>
					<path d="M138.3,35.5c-0.9,0.9-2.2,1.3-3.6,1.3H130V22.9h4.7c1.4,0,2.7,0.4,3.6,1.3c1.5,1.5,1.4,3.5,1.4,5.6
						C139.7,31.8,139.8,34,138.3,35.5z M137,25.5c-0.6-0.6-1.3-1-2.6-1h-2.5v10.6h2.5c1.3,0,2-0.3,2.6-1c0.8-0.8,0.8-2.5,0.8-4.5
						C137.8,27.8,137.7,26.3,137,25.5z"/>
					<path d="M102.5,36.8l-6-10.3v10.3h-1.9V22.9h1.7l6,10.3V22.9h1.9v13.9H102.5z"/>
					<path d="M70.3,35.5c-0.9,0.9-2.2,1.3-3.6,1.3H62V22.9h4.7c1.4,0,2.7,0.4,3.6,1.3c1.5,1.5,1.4,3.5,1.4,5.6
						C71.7,31.8,71.8,34,70.3,35.5z M69,25.5c-0.6-0.6-1.3-1-2.6-1h-2.5v10.6h2.5c1.3,0,2-0.3,2.6-1c0.8-0.8,0.8-2.5,0.8-4.5
						C69.8,27.8,69.7,26.3,69,25.5z"/>
					<path d="M116.8,27c-0.1-1-0.4-2.1-1.3-3c-1-0.9-2.2-1.5-3.7-1.5c-1.5,0-2.7,0.5-3.7,1.5c-1.4,1.4-1.4,3.1-1.4,5.8
						s0,4.4,1.4,5.8c1,0.9,2.2,1.5,3.7,1.5c1.5,0,2.7-0.5,3.7-1.5c0.8-0.8,1.2-1.9,1.3-3l-1.9,0c-0.1,0.7-0.4,1.3-0.8,1.8
						c-0.5,0.6-1.3,0.9-2.2,0.9l0,0h0h0c-0.9,0-1.7-0.3-2.2-0.9c-0.7-0.8-0.9-1.6-0.9-4.7c0-3,0.2-3.9,0.9-4.7
						c0.5-0.6,1.3-0.9,2.2-0.9h0h0l0,0c0.9,0,1.7,0.3,2.2,0.9c0.4,0.5,0.7,1,0.8,1.8L116.8,27z"/>
				</g>
				<g>
					<path d="M157.1,36.8V27l-3.2,7.3h-1.3l-3.3-7.3v9.8h-1.9V22.9h1.8l4.1,9.1l4-9.1h1.8v13.9H157.1z"/>
					<path d="M176.9,24.5v12.3H175V24.5h-3.8v-1.7h9.6v1.7H176.9z"/>
					<path d="M182.5,36.8V22.9h8.4v1.7h-6.5V29h6v1.6h-6v4.5h6.5v1.7H182.5z"/>
					<path d="M235.9,37.1c-3,0-4.8-1.8-4.8-4.4h1.9c0,1.6,1,2.7,2.9,2.7c1.9,0,2.9-0.9,2.9-2.4c0-1.3-0.6-1.8-3.1-2.4
						c-3.1-0.7-4.4-1.8-4.4-4.2c0-2.5,2-3.8,4.5-3.8c3,0,4.4,1.7,4.4,3.8h-1.8c0-1-0.6-2.2-2.5-2.2c-1.5,0-2.6,0.6-2.6,2.1
						c0,1.5,0.9,2.1,3.5,2.7c2.8,0.7,4,1.8,4,4C240.8,35.7,238.9,37.1,235.9,37.1z"/>
					<path d="M221.9,36.8V22.9h1.9v12.3h6.8v1.7H221.9z"/>
					<path d="M218.4,36.8h2l-5-13.9h-1.6l-5,13.9h2l1-3h5.7L218.4,36.8z M212.3,32.3l2.3-6.8l2.3,6.8H212.3z"/>
					<path d="M170.1,36.8h2l-5-13.9h-1.6l-5,13.9h2l1-3h5.7L170.1,36.8z M163.9,32.3l2.3-6.8l2.3,6.8H163.9z"/>
					<path d="M201.1,36.8l-3-6h-2.9v6h-1.9V22.9h5.2c2.7,0,4.3,1.7,4.3,4c0,2-1.3,3.3-2.8,3.7l3.3,6.3H201.1z M198.5,24.5h-3.4v4.7
						h3.4c1.4,0,2.4-1,2.4-2.3C200.9,25.5,199.9,24.5,198.5,24.5z"/>
					<path d="M205.4,36.8V22.9h1.9v13.9H205.4z"/>
				</g>
			</g>
		</g>
	</g>
</g>
</svg>
